<?xml version="1.0" encoding="UTF-8" standalone="no"?>
<!-- Created with Inkscape (http://www.inkscape.org/) -->

<svg
   width="76.011215mm"
   height="38.225555mm"
   viewBox="0 0 76.011215 38.225555"
   version="1.1"
   id="svg1"
   xmlns="http://www.w3.org/2000/svg"
   xmlns:svg="http://www.w3.org/2000/svg">
  <defs
     id="defs1">
    <clipPath
       clipPathUnits="userSpaceOnUse"
       id="clipPath7">
      <path
         d="M 0,841.89 H 595.276 V 0 H 0 Z"
         transform="translate(-63.669401,-599.36581)"
         id="path7" />
    </clipPath>
    <clipPath
       clipPathUnits="userSpaceOnUse"
       id="clipPath9">
      <path
         d="M 0,841.89 H 595.276 V 0 H 0 Z"
         transform="translate(-106.9458,-642.09341)"
         id="path9" />
    </clipPath>
    <clipPath
       clipPathUnits="userSpaceOnUse"
       id="clipPath11">
      <path
         d="M 0,841.89 H 595.276 V 0 H 0 Z"
         transform="translate(-106.7656,-615.92882)"
         id="path11" />
    </clipPath>
    <clipPath
       clipPathUnits="userSpaceOnUse"
       id="clipPath13">
      <path
         d="M 0,841.89 H 595.276 V 0 H 0 Z"
         transform="translate(-61.454602,-642.64271)"
         id="path13" />
    </clipPath>
    <clipPath
       clipPathUnits="userSpaceOnUse"
       id="clipPath15">
      <path
         d="M 0,841.89 H 595.276 V 0 H 0 Z"
         transform="translate(-106.9668,-641.41472)"
         id="path15" />
    </clipPath>
    <clipPath
       clipPathUnits="userSpaceOnUse"
       id="clipPath17">
      <path
         d="M 0,841.89 H 595.276 V 0 H 0 Z"
         transform="translate(-78.804699,-600.28382)"
         id="path17" />
    </clipPath>
    <clipPath
       clipPathUnits="userSpaceOnUse"
       id="clipPath19">
      <path
         d="m 78.805,600.284 v -4.125 h 0.983 v 1.6 h 1.595 v 0.825 h -1.596 v 0.849 h 1.731 v 0.851 z"
         transform="translate(-79.118702,-601.15442)"
         id="path19" />
    </clipPath>
    <clipPath
       clipPathUnits="userSpaceOnUse"
       id="clipPath21">
      <path
         d="M 0,841.89 H 595.276 V 0 H 0 Z"
         transform="translate(-82.974602,-600.27992)"
         id="path21" />
    </clipPath>
    <clipPath
       clipPathUnits="userSpaceOnUse"
       id="clipPath23">
      <path
         d="m 82.975,600.28 v -4.123 h 0.995 v 1.555 h 0.498 c 0.212,0 0.417,0.024 0.617,0.071 v 0 c 0.197,0.046 0.372,0.121 0.522,0.221 v 0 c 0.153,0.1 0.274,0.233 0.362,0.397 v 0 c 0.089,0.166 0.135,0.369 0.135,0.611 v 0 c 0,0.235 -0.041,0.435 -0.127,0.597 v 0 c -0.082,0.161 -0.195,0.291 -0.343,0.389 v 0 c -0.146,0.099 -0.316,0.173 -0.514,0.216 v 0 c -0.194,0.044 -0.406,0.068 -0.632,0.068 v 0 z m 0.995,-0.802 h 0.438 c 0.089,0 0.177,-0.005 0.257,-0.018 v 0 c 0.085,-0.013 0.16,-0.034 0.226,-0.072 v 0 c 0.066,-0.033 0.119,-0.081 0.158,-0.142 v 0 c 0.041,-0.063 0.059,-0.143 0.059,-0.241 v 0 c 0,-0.096 -0.018,-0.177 -0.059,-0.243 v 0 c -0.039,-0.062 -0.093,-0.114 -0.16,-0.154 v 0 c -0.068,-0.036 -0.145,-0.064 -0.231,-0.079 v 0 c -0.085,-0.017 -0.175,-0.025 -0.269,-0.025 v 0 H 83.97 Z"
         transform="translate(-83.338405,-601.28432)"
         id="path23" />
    </clipPath>
    <clipPath
       clipPathUnits="userSpaceOnUse"
       id="clipPath25">
      <path
         d="M 0,841.89 H 595.276 V 0 H 0 Z"
         transform="translate(-87.287102,-600.28382)"
         id="path25" />
    </clipPath>
    <clipPath
       clipPathUnits="userSpaceOnUse"
       id="clipPath27">
      <path
         d="m 87.287,600.284 v -4.125 h 0.972 l -0.001,1.638 h 0.34 l 0.898,-1.638 h 1.164 l -1.078,1.766 c 0.267,0.083 0.48,0.216 0.629,0.408 v 0 c 0.152,0.188 0.228,0.425 0.228,0.703 v 0 c 0,0.24 -0.045,0.437 -0.135,0.597 v 0 c -0.089,0.159 -0.209,0.287 -0.358,0.383 v 0 c -0.148,0.097 -0.318,0.166 -0.507,0.208 v 0 c -0.189,0.041 -0.382,0.06 -0.579,0.06 v 0 z m 0.965,-0.803 h 0.534 c 0.074,0 0.151,-0.008 0.229,-0.017 v 0 c 0.081,-0.012 0.155,-0.034 0.219,-0.068 v 0 c 0.064,-0.032 0.116,-0.079 0.16,-0.139 v 0 c 0.04,-0.06 0.059,-0.14 0.059,-0.238 v 0 c 0,-0.103 -0.022,-0.19 -0.067,-0.257 v 0 c -0.045,-0.066 -0.102,-0.114 -0.172,-0.15 v 0 c -0.072,-0.036 -0.149,-0.059 -0.235,-0.07 v 0 c -0.085,-0.015 -0.17,-0.024 -0.252,-0.024 v 0 h -0.475 z"
         transform="translate(-87.6787,-601.36541)"
         id="path27" />
    </clipPath>
    <clipPath
       clipPathUnits="userSpaceOnUse"
       id="clipPath29">
      <path
         d="M 0,841.89 H 595.276 V 0 H 0 Z"
         transform="translate(-92.954605,-613.48211)"
         id="path29" />
    </clipPath>
    <clipPath
       clipPathUnits="userSpaceOnUse"
       id="clipPath31">
      <path
         d="M 0,841.89 H 595.276 V 0 H 0 Z"
         transform="translate(-92.954605,-613.48211)"
         id="path31" />
    </clipPath>
    <clipPath
       clipPathUnits="userSpaceOnUse"
       id="clipPath33">
      <path
         d="M 0,841.89 H 595.276 V 0 H 0 Z"
         transform="translate(-80.832505,-630.11441)"
         id="path33" />
    </clipPath>
    <clipPath
       clipPathUnits="userSpaceOnUse"
       id="clipPath35">
      <path
         d="M 0,841.89 H 595.276 V 0 H 0 Z"
         transform="translate(-87.951205,-630.11441)"
         id="path35" />
    </clipPath>
    <clipPath
       clipPathUnits="userSpaceOnUse"
       id="clipPath37">
      <path
         d="M 0,841.89 H 595.276 V 0 H 0 Z"
         transform="translate(-77.372604,-629.20961)"
         id="path37" />
    </clipPath>
    <clipPath
       clipPathUnits="userSpaceOnUse"
       id="clipPath39">
      <path
         d="M 0,841.89 H 595.276 V 0 H 0 Z"
         transform="translate(-78.606902,-616.25212)"
         id="path39" />
    </clipPath>
    <clipPath
       clipPathUnits="userSpaceOnUse"
       id="clipPath41">
      <path
         d="M 0,841.89 H 595.276 V 0 H 0 Z"
         transform="translate(-82.906705,-622.49132)"
         id="path41" />
    </clipPath>
    <clipPath
       clipPathUnits="userSpaceOnUse"
       id="clipPath43">
      <path
         d="M 0,841.89 H 595.276 V 0 H 0 Z"
         transform="translate(-84.182102,-643.64171)"
         id="path43" />
    </clipPath>
    <clipPath
       clipPathUnits="userSpaceOnUse"
       id="clipPath45">
      <path
         d="M 0,841.89 H 595.276 V 0 H 0 Z"
         transform="translate(-86.388205,-633.50162)"
         id="path45" />
    </clipPath>
    <clipPath
       clipPathUnits="userSpaceOnUse"
       id="clipPath47">
      <path
         d="M 0,841.89 H 595.276 V 0 H 0 Z"
         transform="translate(-87.0127,-636.27802)"
         id="path47" />
    </clipPath>
    <clipPath
       clipPathUnits="userSpaceOnUse"
       id="clipPath49">
      <path
         d="M 0,841.89 H 595.276 V 0 H 0 Z"
         transform="translate(-81.3682,-636.31162)"
         id="path49" />
    </clipPath>
    <clipPath
       clipPathUnits="userSpaceOnUse"
       id="clipPath51">
      <path
         d="M 0,841.89 H 595.276 V 0 H 0 Z"
         transform="translate(-77.160204,-636.05582)"
         id="path51" />
    </clipPath>
    <clipPath
       clipPathUnits="userSpaceOnUse"
       id="clipPath53">
      <path
         d="M 0,841.89 H 595.276 V 0 H 0 Z"
         transform="translate(-90.7837,-636.25162)"
         id="path53" />
    </clipPath>
    <clipPath
       clipPathUnits="userSpaceOnUse"
       id="clipPath55">
      <path
         d="M 0,841.89 H 595.276 V 0 H 0 Z"
         transform="translate(-80.944802,-639.59002)"
         id="path55" />
    </clipPath>
    <clipPath
       clipPathUnits="userSpaceOnUse"
       id="clipPath57">
      <path
         d="M 0,841.89 H 595.276 V 0 H 0 Z"
         transform="translate(-84.956102,-638.07632)"
         id="path57" />
    </clipPath>
    <clipPath
       clipPathUnits="userSpaceOnUse"
       id="clipPath59">
      <path
         d="M 0,841.89 H 595.276 V 0 H 0 Z"
         transform="translate(-86.839802,-636.95722)"
         id="path59" />
    </clipPath>
    <clipPath
       clipPathUnits="userSpaceOnUse"
       id="clipPath61">
      <path
         d="M 0,841.89 H 595.276 V 0 H 0 Z"
         transform="translate(-89.550302,-639.07481)"
         id="path61" />
    </clipPath>
    <clipPath
       clipPathUnits="userSpaceOnUse"
       id="clipPath63">
      <path
         d="M 0,841.89 H 595.276 V 0 H 0 Z"
         transform="translate(-78.298802,-639.12172)"
         id="path63" />
    </clipPath>
    <clipPath
       clipPathUnits="userSpaceOnUse"
       id="clipPath65">
      <path
         d="M 0,841.89 H 595.276 V 0 H 0 Z"
         transform="translate(-84.514202,-641.29412)"
         id="path65" />
    </clipPath>
    <clipPath
       clipPathUnits="userSpaceOnUse"
       id="clipPath67">
      <path
         d="M 0,841.89 H 595.276 V 0 H 0 Z"
         transform="translate(-80.8867,-640.35172)"
         id="path67" />
    </clipPath>
    <clipPath
       clipPathUnits="userSpaceOnUse"
       id="clipPath69">
      <path
         d="M 0,841.89 H 595.276 V 0 H 0 Z"
         transform="translate(-80.646002,-641.42201)"
         id="path69" />
    </clipPath>
    <clipPath
       clipPathUnits="userSpaceOnUse"
       id="clipPath71">
      <path
         d="M 0,841.89 H 595.276 V 0 H 0 Z"
         transform="translate(-87.266605,-641.08361)"
         id="path71" />
    </clipPath>
    <clipPath
       clipPathUnits="userSpaceOnUse"
       id="clipPath73">
      <path
         d="M 0,841.89 H 595.276 V 0 H 0 Z"
         transform="translate(-83.824705,-642.35512)"
         id="path73" />
    </clipPath>
    <clipPath
       clipPathUnits="userSpaceOnUse"
       id="clipPath75">
      <path
         d="M 0,841.89 H 595.276 V 0 H 0 Z"
         transform="translate(-84.229,-631.34632)"
         id="path75" />
    </clipPath>
    <clipPath
       clipPathUnits="userSpaceOnUse"
       id="clipPath77">
      <path
         d="M 0,841.89 H 595.276 V 0 H 0 Z"
         transform="translate(-76.312502,-631.59832)"
         id="path77" />
    </clipPath>
    <clipPath
       clipPathUnits="userSpaceOnUse"
       id="clipPath79">
      <path
         d="M 0,841.89 H 595.276 V 0 H 0 Z"
         transform="translate(-89.499002,-631.59832)"
         id="path79" />
    </clipPath>
    <clipPath
       clipPathUnits="userSpaceOnUse"
       id="clipPath81">
      <path
         d="M 0,841.89 H 595.276 V 0 H 0 Z"
         transform="translate(-81.6973,-633.97031)"
         id="path81" />
    </clipPath>
    <clipPath
       clipPathUnits="userSpaceOnUse"
       id="clipPath83">
      <path
         d="M 0,841.89 H 595.276 V 0 H 0 Z"
         transform="translate(-85.650902,-634.38592)"
         id="path83" />
    </clipPath>
    <clipPath
       clipPathUnits="userSpaceOnUse"
       id="clipPath85">
      <path
         d="M 0,841.89 H 595.276 V 0 H 0 Z"
         transform="translate(-81.6523,-626.06122)"
         id="path85" />
    </clipPath>
    <clipPath
       clipPathUnits="userSpaceOnUse"
       id="clipPath87">
      <path
         d="M 0,841.89 H 595.276 V 0 H 0 Z"
         transform="translate(-81.6523,-626.06122)"
         id="path87" />
    </clipPath>
    <clipPath
       clipPathUnits="userSpaceOnUse"
       id="clipPath89">
      <path
         d="M 0,841.89 H 595.276 V 0 H 0 Z"
         transform="translate(-77.887704,-628.93712)"
         id="path89" />
    </clipPath>
    <clipPath
       clipPathUnits="userSpaceOnUse"
       id="clipPath91">
      <path
         d="M 0,841.89 H 595.276 V 0 H 0 Z"
         transform="translate(-86.6797,-626.03822)"
         id="path91" />
    </clipPath>
    <clipPath
       clipPathUnits="userSpaceOnUse"
       id="clipPath93">
      <path
         d="M 0,841.89 H 595.276 V 0 H 0 Z"
         transform="translate(-90.443402,-628.91222)"
         id="path93" />
    </clipPath>
    <clipPath
       clipPathUnits="userSpaceOnUse"
       id="clipPath95">
      <path
         d="M 0,841.89 H 595.276 V 0 H 0 Z"
         transform="translate(-86.8657,-624.87611)"
         id="path95" />
    </clipPath>
    <clipPath
       clipPathUnits="userSpaceOnUse"
       id="clipPath97">
      <path
         d="M 0,841.89 H 595.276 V 0 H 0 Z"
         transform="translate(-84.274405,-628.86152)"
         id="path97" />
    </clipPath>
    <clipPath
       clipPathUnits="userSpaceOnUse"
       id="clipPath99">
      <path
         d="M 0,841.89 H 595.276 V 0 H 0 Z"
         transform="translate(-87.636205,-639.64862)"
         id="path99" />
    </clipPath>
    <clipPath
       clipPathUnits="userSpaceOnUse"
       id="clipPath101">
      <path
         d="M 0,841.89 H 595.276 V 0 H 0 Z"
         transform="translate(-81.572305,-636.98891)"
         id="path101" />
    </clipPath>
    <clipPath
       clipPathUnits="userSpaceOnUse"
       id="clipPath103">
      <path
         d="M 0,841.89 H 595.276 V 0 H 0 Z"
         transform="translate(-86.9854,-636.28721)"
         id="path103" />
    </clipPath>
    <clipPath
       clipPathUnits="userSpaceOnUse"
       id="clipPath105">
      <path
         d="M 0,841.89 H 595.276 V 0 H 0 Z"
         transform="translate(-90.731905,-620.26772)"
         id="path105" />
    </clipPath>
    <clipPath
       clipPathUnits="userSpaceOnUse"
       id="clipPath107">
      <path
         d="M 0,841.89 H 595.276 V 0 H 0 Z"
         transform="translate(-84.749005,-616.22032)"
         id="path107" />
    </clipPath>
  </defs>
  <g
     id="layer1"
     transform="translate(-5.2280095,-4.3955334)">
    <path
       id="path4"
       d="m 42.931803,13.5974 v -0.77942 h -2.984266 v 5.03463 h 0.786442 v -2.127604 h 1.895886 V 14.938564 H 40.733979 V 13.5974 Z m 3.665378,0.007 v -0.779418 h -2.984264 v 5.020585 h 2.984264 V 17.05909 h -2.197822 v -1.383295 h 1.895885 v -0.786442 h -1.895885 v -1.284989 z m 2.297885,-0.779418 h -1.425425 v 5.020585 h 1.425425 c 1.593948,0 2.591044,-0.961986 2.591044,-2.49976 0,-1.55884 -0.997096,-2.520825 -2.591044,-2.520825 z m 0.007,4.234144 h -0.653027 v -3.447704 h 0.646005 c 1.102423,0 1.790559,0.660049 1.790559,1.727362 0,1.060293 -0.688136,1.720342 -1.783537,1.720342 z M 55.240995,13.6044 V 12.824982 H 52.25673 v 5.020585 h 2.984265 V 17.05909 h -2.197824 v -1.383295 h 1.895886 v -0.786442 h -1.895886 v -1.284989 z m 4.594012,4.241167 -1.460533,-2.008234 c 0.582808,-0.189588 0.997095,-0.751334 0.997095,-1.397339 0,-0.891768 -0.765376,-1.615012 -1.699276,-1.615012 h -1.558839 v 5.020585 h 0.786442 v -1.945038 h 0.617918 l 1.355207,1.945038 z M 56.89986,15.247465 v -1.636079 h 0.793462 c 0.463439,0 0.863683,0.344068 0.863683,0.807508 0,0.449394 -0.393222,0.835593 -0.863683,0.828571 z m 7.020045,2.598066 h 0.849636 L 62.410217,12.72664 h -0.04916 l -2.359326,5.118891 h 0.85666 l 0.337047,-0.765376 h 2.380391 z m -2.415501,-1.439469 0.884746,-1.959082 0.877727,1.959082 z m 5.766655,1.523731 c 0.751332,0 1.299033,-0.330025 1.734384,-0.758355 l -0.456418,-0.631962 c -0.344067,0.344069 -0.78644,0.596854 -1.299033,0.596854 -0.898789,0 -1.783537,-0.779421 -1.783537,-1.790559 0,-1.01114 0.870705,-1.804603 1.776516,-1.804603 0.491526,0 0.947944,0.23172 1.306054,0.58281 l 0.456418,-0.617918 c -0.491526,-0.477483 -1.095401,-0.758355 -1.748429,-0.765377 -1.404359,0 -2.584022,1.186683 -2.584022,2.598065 0,1.418405 1.179663,2.591045 2.598067,2.591045 z m 2.410231,-0.08426 h 0.786442 V 12.824946 H 69.68129 Z m 4.239413,-5.434872 0.744311,-1.018162 h -0.695158 l -0.617918,1.018162 z m -0.09128,5.519134 c 1.432446,0 2.605087,-1.165619 2.605087,-2.584022 0,-1.432448 -1.172641,-2.605088 -2.598066,-2.605088 -1.432448,0 -2.591045,1.17264 -2.591045,2.605088 0,1.418403 1.158597,2.584022 2.584024,2.584022 z m 0,-0.800485 c -0.990076,0 -1.790561,-0.807508 -1.790561,-1.79056 0,-0.997096 0.800485,-1.804601 1.790561,-1.804601 0.990073,0 1.804602,0.807505 1.804602,1.804601 0,0.983052 -0.814529,1.79056 -1.804602,1.79056 z m 6.623317,-4.311386 v 3.27216 l -3.208967,-3.349399 h -0.03511 v 5.111869 h 0.786442 v -3.272158 l 3.208966,3.349399 h 0.03516 V 12.817924 Z M 39.94748,24.221328 h 0.786442 V 22.47992 h 0.891767 c 0.969009,0 1.762473,-0.730268 1.762473,-1.622037 0,-0.912834 -0.793464,-1.657145 -1.762473,-1.657145 h -1.678155 z m 1.678209,-2.520827 H 40.733925 V 19.98718 h 0.891767 c 0.533658,0 0.976031,0.386198 0.976031,0.863681 0,0.470461 -0.442373,0.85666 -0.976031,0.849638 z m 5.422586,-1.720341 v -0.77942 h -2.984264 v 5.020588 h 2.984264 V 23.434884 H 44.850454 V 22.05159 h 1.895886 v -0.786442 h -1.895886 v -1.28499 z m 4.594014,4.241168 -1.460535,-2.008236 c 0.582809,-0.189588 0.997095,-0.751332 0.997095,-1.397337 0,-0.891769 -0.765377,-1.615015 -1.699276,-1.615015 h -1.558839 v 5.020588 h 0.786442 v -1.94504 h 0.617918 l 1.355208,1.94504 z m -2.93511,-2.598068 v -1.63608 h 0.793464 c 0.463438,0 0.863681,0.344069 0.863681,0.807507 0,0.449396 -0.393222,0.835595 -0.863681,0.828573 z m 5.150491,2.68935 c 1.067313,0 1.902906,-0.842617 1.902906,-1.994192 v -3.11768 h -0.800483 v 3.11768 c 0,0.695157 -0.491528,1.200728 -1.102423,1.200728 -0.617918,0 -1.102423,-0.505571 -1.102423,-1.200728 v -3.117622 h -0.793409 v 3.117679 c 0,1.151576 0.828571,1.994193 1.895886,1.994193 z m 5.90709,-0.09128 h 0.849636 l -2.35927,-5.11884 h -0.04915 l -2.359324,5.118891 h 0.856659 l 0.337046,-0.765375 h 2.380391 z m -2.415501,-1.439468 0.884747,-1.959082 0.877726,1.959082 z m 7.11835,-3.588141 v 3.27216 l -3.208963,-3.349399 h -0.03511 v 5.11187 h 0.786442 v -3.272158 l 3.208963,3.349399 h 0.03511 v -5.111872 z m 5.308482,5.027609 h 0.849638 l -2.359326,-5.118891 h -0.04915 l -2.359326,5.118891 h 0.85666 l 0.337047,-0.765375 h 2.380389 z m -2.415501,-1.439468 0.884748,-1.959082 0.877725,1.959082 z m 7.221922,-3.581119 h -1.425425 v 5.020587 h 1.425425 c 1.593949,0 2.591046,-0.961987 2.591046,-2.499761 0,-1.558839 -0.997097,-2.520826 -2.591046,-2.520826 z m 0.007,4.234145 H 73.93645 v -3.447703 h 0.646005 c 1.102422,0 1.790559,0.660049 1.790559,1.727362 0,1.060293 -0.688137,1.720341 -1.783538,1.720341 z m 6.338933,-3.454725 v -0.77942 h -2.984268 v 5.020587 h 2.984268 v -0.78644 h -2.197826 v -1.383293 h 1.895883 v -0.786442 h -1.895883 v -1.28499 z m 0,0"
       style="fill:#050606;fill-opacity:1;fill-rule:nonzero;stroke:none;stroke-width:0.599194"
       aria-label="FEDERACIÓN &#10;PERUANA DE  " />
    <path
       id="path5"
       d="m 44.522241,31.590761 -1.825669,-2.506783 c 0.723246,-0.238741 1.242858,-0.940921 1.242858,-1.748427 0,-1.116466 -0.954963,-2.015257 -2.120582,-2.015257 h -1.952061 v 6.270467 h 0.990074 v -2.429544 h 0.765375 l 1.692255,2.429544 z m -3.672402,-3.244072 v -2.050365 h 0.990074 c 0.582808,0 1.088379,0.42833 1.088379,1.011138 0,0.561744 -0.498548,1.039227 -1.088379,1.039227 z m 6.437235,3.363443 c 1.334142,0 2.373369,-1.060292 2.373369,-2.499762 v -3.890076 h -0.990074 v 3.890076 c 0,0.863682 -0.617918,1.502666 -1.383295,1.502666 -0.772399,0 -1.383294,-0.638984 -1.383294,-1.502666 v -3.890076 h -0.983052 v 3.890076 c 0,1.43947 1.032203,2.499762 2.366346,2.499762 z m 9.511028,-3.54601 H 53.82788 v 0.905813 h 1.938017 v 0.02106 c 0,0.954966 -0.807506,1.615015 -1.888863,1.615015 -1.334142,0 -2.310172,-1.01114 -2.310172,-2.246976 0,-1.299033 1.081356,-2.253999 2.22591,-2.253999 0.589832,0 1.256903,0.301938 1.741407,0.786442 L 56.0889,26.17695 c -0.596852,-0.575789 -1.495643,-0.961987 -2.289107,-0.961987 -1.783537,0 -3.237048,1.467556 -3.237048,3.244072 0,1.783537 1.44649,3.23705 3.272158,3.23705 1.636078,0 2.984264,-1.17264 2.984264,-3.04044 0,-0.175545 -0.007,-0.344067 -0.02106,-0.491526 z m 3.814594,-0.105324 c 0.231718,0 0.702179,-0.456418 0.702179,-1.130511 0,-0.835593 -0.730267,-1.607992 -1.811623,-1.607992 h -1.71332 v 6.270468 h 2.345281 c 1.242858,0 1.973126,-0.947943 1.973126,-1.90993 0,-0.97603 -0.793464,-1.622035 -1.495643,-1.622035 z m -1.053271,-1.783539 c 0.442374,0 0.835594,0.337047 0.835594,0.779421 0,0.449394 -0.358112,0.786441 -0.849638,0.77942 l -0.772397,0.007 v -1.565861 z m 0.484504,4.353517 h -1.270945 v -1.923973 h 1.256902 c 0.716224,0 1.116466,0.435351 1.116466,0.905812 0,0.610897 -0.533656,1.018161 -1.102423,1.018161 z m 3.660113,0.961987 h 0.976032 v -2.682329 l 2.085473,-3.588139 h -1.109444 l -1.460533,2.49274 -1.460535,-2.49274 h -1.109444 l 2.078451,3.588139 z m 0,0"
       style="fill:#050606;fill-opacity:1;fill-rule:nonzero;stroke:none;stroke-width:0.599194"
       aria-label="RUGBY" />
    <path
       id="path6"
       d="m 0,0 c -0.241,0.309 -0.476,0.621 -0.704,0.938 -0.914,1.28 -1.715,2.645 -2.387,4.08 -1.568,3.344 -2.445,7.08 -2.445,11.018 v 28.522 c 0,0.429 0.284,0.805 0.695,0.925 l 25.093,7.285 25.49,-7.287 c 0.412,-0.118 0.698,-0.496 0.698,-0.927 V 16.036 C 46.44,12.292 45.648,8.731 44.223,5.517 43.487,3.859 42.584,2.293 41.537,0.841 38.037,-4.008 20.402,-11.027 20.402,-11.027 20.402,-11.027 3.503,-4.461 0,0"
       style="fill:#ceb44b;fill-opacity:1;fill-rule:nonzero;stroke:none"
       transform="matrix(0.59919363,0,0,-0.59919363,8.5451456,36.013783)"
       clip-path="url(#clipPath7)" />
    <path
       id="path8"
       d="M 0,0 -23.005,6.58 -45.652,0.004 c -0.152,-0.045 -0.262,-0.19 -0.262,-0.348 v -25.903 c 0,-3.421 0.732,-6.715 2.172,-9.79 0.594,-1.266 1.308,-2.485 2.121,-3.623 0.204,-0.282 0.413,-0.562 0.626,-0.835 1.435,-1.828 5.528,-4.098 9.48,-6 3.951,-1.903 7.765,-3.432 8.643,-3.78 1.797,0.728 15.907,6.549 18.783,10.527 0.937,1.298 1.736,2.693 2.381,4.153 1.31,2.951 1.974,6.094 1.974,9.348 V -0.348 C 0.266,-0.188 0.157,-0.043 0,0"
       style="fill:#ffffff;fill-opacity:1;fill-rule:nonzero;stroke:none"
       transform="matrix(0.59919363,0,0,-0.59919363,34.476089,10.41168)"
       clip-path="url(#clipPath9)" />
    <path
       id="path10"
       d="m 0,0 c 0,-3.188 -0.651,-6.272 -1.933,-9.166 -0.633,-1.429 -1.421,-2.798 -2.339,-4.071 -0.497,-0.689 -1.338,-1.436 -2.394,-2.198 L -22.735,1.58 -38.904,-15.431 c -0.663,0.506 -1.197,0.997 -1.561,1.46 -0.21,0.267 -0.416,0.542 -0.614,0.818 -0.797,1.117 -1.498,2.314 -2.079,3.553 -1.415,3.015 -2.132,6.245 -2.132,9.6 v 25.405 c 0,0.015 0.004,0.033 0.004,0.047 L -22.735,1.58 -0.01,25.486 C -0.004,25.458 0,25.431 0,25.403 Z"
       style="fill:#bc1c2c;fill-opacity:1;fill-rule:nonzero;stroke:none"
       transform="matrix(0.59919363,0,0,-0.59919363,34.368114,26.089339)"
       clip-path="url(#clipPath11)" />
    <path
       id="path12"
       d="m 0,0 c -0.58,-0.169 -0.984,-0.707 -0.984,-1.309 v -25.403 c 0,-3.504 0.75,-6.878 2.225,-10.029 0.608,-1.296 1.34,-2.543 2.174,-3.711 0.205,-0.289 0.421,-0.575 0.637,-0.854 3.173,-4.036 17.769,-9.741 18.389,-9.982 l 0.183,-0.071 0.184,0.073 c 0.648,0.258 15.881,6.36 19.048,10.744 0.959,1.33 1.781,2.759 2.444,4.256 1.338,3.021 2.019,6.241 2.019,9.574 v 25.401 c 0,0.604 -0.407,1.142 -0.989,1.309 L 22.489,6.53 Z m 14.145,-46.57 c -3.878,1.864 -7.89,4.091 -9.298,5.885 -0.21,0.267 -0.415,0.542 -0.615,0.82 -0.797,1.115 -1.498,2.312 -2.079,3.553 -1.413,3.013 -2.132,6.243 -2.132,9.6 v 25.403 c 0,0.156 0.108,0.299 0.258,0.34 l 22.211,6.45 22.563,-6.452 c 0.152,-0.041 0.258,-0.184 0.258,-0.34 v -25.401 c 0,-3.19 -0.651,-6.274 -1.932,-9.167 -0.634,-1.43 -1.421,-2.799 -2.339,-4.072 -2.818,-3.905 -16.658,-9.61 -18.421,-10.324 -0.86,0.34 -4.599,1.839 -8.474,3.705"
       style="fill:#ffffff;fill-opacity:1;fill-rule:nonzero;stroke:none"
       transform="matrix(0.59919363,0,0,-0.59919363,7.2180519,10.082543)"
       clip-path="url(#clipPath13)" />
    <path
       id="path14"
       d="M 0,0 -22.633,-21.1 -45.274,-0.034 -22.915,-24.34 Z"
       style="fill:#bc1c2c;fill-opacity:1;fill-rule:nonzero;stroke:none"
       transform="matrix(0.59919363,0,0,-0.59919363,34.488673,10.818351)"
       clip-path="url(#clipPath15)" />
    <path
       id="path16"
       d="m 0,0 v -4.125 h 0.983 v 1.601 H 2.579 V -1.7 H 0.982 v 0.85 H 2.714 V 0 Z"
       style="fill:#bc1c2c;fill-opacity:1;fill-rule:nonzero;stroke:none"
       transform="matrix(0.59919363,0,0,-0.59919363,17.61412,35.463724)"
       clip-path="url(#clipPath17)" />
    <path
       id="path18"
       d="m 0,0 3.721,-1.349 -1.636,-4.517 -3.721,1.35 z"
       style="fill:#bc1c2c;fill-opacity:1;fill-rule:nonzero;stroke:none"
       transform="matrix(0.59919363,0,0,-0.59919363,17.802268,34.942066)"
       clip-path="url(#clipPath19)" />
    <path
       id="path20"
       d="m 0,0 v -4.123 h 0.995 v 1.556 h 0.498 c 0.213,0 0.418,0.023 0.617,0.069 0.198,0.047 0.372,0.123 0.523,0.222 0.153,0.1 0.273,0.234 0.361,0.397 0.089,0.166 0.135,0.369 0.135,0.611 0,0.235 -0.041,0.435 -0.127,0.597 C 2.921,-0.51 2.807,-0.38 2.66,-0.282 2.514,-0.182 2.343,-0.109 2.146,-0.066 1.951,-0.022 1.74,0.002 1.514,0.002 Z m 0.995,-0.801 h 0.439 c 0.088,0 0.176,-0.006 0.256,-0.019 0.085,-0.013 0.161,-0.034 0.227,-0.072 0.065,-0.033 0.118,-0.08 0.158,-0.142 0.04,-0.063 0.058,-0.143 0.058,-0.241 0,-0.096 -0.018,-0.177 -0.058,-0.243 C 2.035,-1.58 1.981,-1.632 1.915,-1.672 1.847,-1.708 1.77,-1.736 1.683,-1.751 1.599,-1.768 1.508,-1.775 1.415,-1.775 h -0.42 z"
       style="fill:#bc1c2c;fill-opacity:1;fill-rule:nonzero;stroke:none"
       transform="matrix(0.59919363,0,0,-0.59919363,20.112699,35.466061)"
       clip-path="url(#clipPath21)" />
    <path
       id="path22"
       d="m 0,0 4.088,-1.482 -1.685,-4.647 -4.088,1.48 z"
       style="fill:#bc1c2c;fill-opacity:1;fill-rule:nonzero;stroke:none"
       transform="matrix(0.59919363,0,0,-0.59919363,20.330687,34.864231)"
       clip-path="url(#clipPath23)" />
    <path
       id="path24"
       d="m 0,0 v -4.125 h 0.973 l -0.002,1.638 h 0.34 l 0.897,-1.638 h 1.165 l -1.078,1.766 c 0.267,0.083 0.48,0.216 0.628,0.408 0.152,0.188 0.229,0.426 0.229,0.704 0,0.239 -0.045,0.436 -0.135,0.596 C 2.928,-0.493 2.808,-0.363 2.659,-0.267 2.51,-0.171 2.341,-0.102 2.152,-0.06 1.963,-0.019 1.77,0 1.573,0 Z m 0.965,-0.803 h 0.534 c 0.074,0 0.151,-0.008 0.23,-0.017 0.081,-0.012 0.154,-0.034 0.218,-0.068 0.064,-0.032 0.116,-0.079 0.16,-0.139 0.039,-0.06 0.059,-0.139 0.059,-0.237 0,-0.104 -0.021,-0.19 -0.067,-0.257 C 2.054,-1.587 1.996,-1.636 1.927,-1.672 1.855,-1.708 1.778,-1.73 1.691,-1.742 1.606,-1.757 1.522,-1.766 1.44,-1.766 H 0.965 Z"
       style="fill:#bc1c2c;fill-opacity:1;fill-rule:nonzero;stroke:none"
       transform="matrix(0.59919363,0,0,-0.59919363,22.696721,35.463724)"
       clip-path="url(#clipPath25)" />
    <path
       id="path26"
       d="M 0,0 4.303,-1.56 2.59,-6.286 -1.713,-4.727 Z"
       style="fill:#bc1c2c;fill-opacity:1;fill-rule:nonzero;stroke:none"
       transform="matrix(0.59919363,0,0,-0.59919363,22.931364,34.815638)"
       clip-path="url(#clipPath27)" />
    <path
       id="path28"
       d="m 0,0 h -0.305 c -1.39,0 -2.782,0.001 -4.173,-0.002 -0.162,0 -0.217,0.043 -0.216,0.218 0.007,0.752 -0.004,1.505 0.007,2.255 0.001,0.199 0.054,0.239 -0.138,0.239 -2.7,-0.005 -5.512,0.009 -8.214,0.009 h -0.24 V 2.475 c 0,-0.746 -0.004,-1.492 0.007,-2.236 10e-4,-0.192 -0.052,-0.241 -0.236,-0.241 C -14.906,0.005 -16.305,0 -17.701,0 h -0.23 c -0.009,-0.076 -0.019,-0.119 -0.016,-0.16 0.038,-0.48 0.055,-0.969 0.124,-1.446 0.295,-2.032 1.151,-3.764 2.663,-5.128 1.559,-1.411 3.412,-2.112 5.459,-2.276 1.493,-0.116 2.949,0.089 4.345,0.66 2.043,0.836 3.578,2.239 4.519,4.3 0.381,0.843 0.607,1.735 0.73,2.65 0.059,0.45 0.073,0.909 0.107,1.4"
       style="fill:#ceb44b;fill-opacity:1;fill-rule:evenodd;stroke:none"
       transform="matrix(0.59919363,0,0,-0.59919363,26.092653,27.555388)"
       clip-path="url(#clipPath29)" />
    <path
       id="path30"
       d="m 0,0 h -0.305 c -1.39,0 -2.782,0.001 -4.173,-0.002 -0.162,0 -0.217,0.043 -0.216,0.218 0.007,0.752 -0.004,1.505 0.007,2.255 0.001,0.199 0.054,0.239 -0.138,0.239 -2.7,-0.005 -5.512,0.009 -8.214,0.009 h -0.24 V 2.475 c 0,-0.746 -0.004,-1.492 0.007,-2.236 10e-4,-0.192 -0.052,-0.241 -0.236,-0.241 C -14.906,0.005 -16.305,0 -17.701,0 h -0.23 c -0.009,-0.076 -0.019,-0.119 -0.016,-0.16 0.038,-0.48 0.055,-0.969 0.124,-1.446 0.295,-2.032 1.151,-3.764 2.663,-5.128 1.559,-1.411 3.412,-2.112 5.459,-2.276 1.493,-0.116 2.949,0.089 4.345,0.66 2.043,0.836 3.578,2.239 4.519,4.3 0.381,0.843 0.607,1.735 0.73,2.65 0.059,0.45 0.073,0.909 0.107,1.4 z"
       style="fill:none;stroke:#28292b;stroke-width:0.899;stroke-linecap:butt;stroke-linejoin:miter;stroke-miterlimit:10;stroke-dasharray:none;stroke-opacity:1"
       transform="matrix(0.59919363,0,0,-0.59919363,26.092653,27.555388)"
       clip-path="url(#clipPath31)" />
    <path
       id="path32"
       d="m 0,0 -0.937,-1.305 4.356,-1.059 0.034,0.835 z"
       style="fill:#ceb44b;fill-opacity:1;fill-rule:evenodd;stroke:#28292b;stroke-width:0.899;stroke-linecap:butt;stroke-linejoin:miter;stroke-miterlimit:10;stroke-dasharray:none;stroke-opacity:1"
       transform="matrix(0.59919363,0,0,-0.59919363,18.829167,17.589419)"
       clip-path="url(#clipPath33)" />
    <path
       id="path34"
       d="m 0,0 1.017,-1.445 -4.723,-1.171 -0.039,0.923 z"
       style="fill:#ceb44b;fill-opacity:1;fill-rule:evenodd;stroke:#28292b;stroke-width:0.899;stroke-linecap:butt;stroke-linejoin:miter;stroke-miterlimit:10;stroke-dasharray:none;stroke-opacity:1"
       transform="matrix(0.59919363,0,0,-0.59919363,23.094646,17.589419)"
       clip-path="url(#clipPath35)" />
    <path
       id="path36"
       d="m 0,0 6.721,-1.144 6.538,0.975 0.575,-3.025 -2.451,-4.841 -9.235,0.034 -2.512,5.043 z"
       style="fill:#ceb44b;fill-opacity:1;fill-rule:evenodd;stroke:#28292b;stroke-width:0.899;stroke-linecap:butt;stroke-linejoin:miter;stroke-miterlimit:10;stroke-dasharray:none;stroke-opacity:1"
       transform="matrix(0.59919363,0,0,-0.59919363,16.756016,18.13157)"
       clip-path="url(#clipPath37)" />
    <path
       id="path38"
       d="M 0,0 4.92,-0.045 3.961,5.015 0.896,5.032 Z"
       style="fill:#ceb44b;fill-opacity:1;fill-rule:evenodd;stroke:#28292b;stroke-width:0.899;stroke-linecap:butt;stroke-linejoin:miter;stroke-miterlimit:10;stroke-dasharray:none;stroke-opacity:1"
       transform="matrix(0.59919363,0,0,-0.59919363,17.4956,25.895619)"
       clip-path="url(#clipPath39)" />
    <path
       id="path40"
       d="m 0,0 c -0.119,-0.348 -0.224,-0.644 -0.321,-0.946 -0.027,-0.077 -0.033,-0.2 -0.017,-0.281 0.279,-1.611 0.596,-3.321 0.891,-4.925 0.021,-0.115 0.094,-0.119 0.167,-0.121 0.328,-0.03 0.662,-0.002 0.99,-0.019 0.12,-0.003 0.167,0.061 0.201,0.252 0.275,1.588 0.559,3.169 0.837,4.749 0.013,0.095 0.031,0.225 0.007,0.3 C 2.652,-0.666 2.537,-0.355 2.408,0.007 1.61,-0.999 0.791,-0.927 0,0"
       style="fill:#ceb44b;fill-opacity:1;fill-rule:evenodd;stroke:#28292b;stroke-width:0.899;stroke-linecap:butt;stroke-linejoin:miter;stroke-miterlimit:10;stroke-dasharray:none;stroke-opacity:1"
       transform="matrix(0.59919363,0,0,-0.59919363,20.072015,22.157131)"
       clip-path="url(#clipPath41)" />
    <path
       id="path42"
       d="m 0,0 c -4.673,0 -8.464,-3.792 -8.464,-8.466 v -0.006 l 0.487,-0.041 0.613,-2.026 c -0.212,-0.114 -0.404,-0.265 -0.551,-0.453 -0.23,-0.29 -0.367,-0.653 -0.367,-1.051 0,-0.933 0.757,-1.691 1.691,-1.691 0.935,0 1.69,0.758 1.69,1.691 0,0.011 -0.003,0.024 -0.003,0.033 0.181,-0.327 0.401,-0.634 0.652,-0.906 0.546,-0.587 1.239,-1.037 2.004,-1.277 0.096,-0.027 0.192,-0.058 0.29,-0.081 l 0.071,-0.015 0.054,-0.017 c 0.037,-0.011 0.076,-0.027 0.118,-0.044 0.166,-0.071 0.345,-0.155 0.528,-0.231 0.37,-0.148 0.773,-0.253 1.19,-0.252 0.417,0 0.823,0.109 1.189,0.26 0.181,0.073 0.361,0.163 0.524,0.231 0.04,0.013 0.078,0.029 0.107,0.036 0.013,0.004 0.046,0.013 0.068,0.017 l 0.072,0.017 c 0.097,0.022 0.193,0.052 0.29,0.081 0.075,0.022 0.256,0.079 0.341,0.124 0.63,0.255 1.199,0.654 1.661,1.153 0.253,0.27 0.47,0.575 0.648,0.899 0,-0.007 -0.002,-0.017 -0.002,-0.028 0,-0.933 0.758,-1.689 1.692,-1.687 0.935,0 1.69,0.755 1.69,1.687 0,0.4 -0.137,0.763 -0.366,1.053 -0.15,0.186 -0.337,0.338 -0.553,0.451 l 0.612,2.028 0.489,0.041 v 0.006 C 8.465,-3.792 4.678,0 0.003,0 H 0"
       style="fill:#ceb44b;fill-opacity:1;fill-rule:nonzero;stroke:#28292b;stroke-width:0.899;stroke-linecap:butt;stroke-linejoin:miter;stroke-miterlimit:10;stroke-dasharray:none;stroke-opacity:1"
       transform="matrix(0.59919363,0,0,-0.59919363,20.836225,9.4839486)"
       clip-path="url(#clipPath43)" />
    <path
       id="path44"
       d="M 0,0 C 0.282,0 0.55,0.125 0.735,0.338 L 1.734,1.492 C 1.738,1.498 1.738,1.503 1.738,1.503 L 2.786,1.509 2.799,0.523 C 2.801,0.328 2.803,0.152 2.79,-0.032 2.776,-0.214 2.753,-0.393 2.717,-0.57 2.57,-1.281 2.229,-1.95 1.74,-2.492 1.37,-2.908 0.909,-3.244 0.405,-3.479 0.361,-3.502 0.333,-3.513 0.307,-3.524 0.29,-3.346 0.264,-3.177 0.233,-3.003 0.194,-2.776 0.151,-2.548 0.085,-2.319 0.07,-2.263 0.053,-2.204 0.029,-2.144 c -0.021,0.062 -0.048,0.119 -0.077,0.175 -0.059,0.113 -0.136,0.222 -0.232,0.318 -0.096,0.098 -0.213,0.178 -0.351,0.231 -0.069,0.026 -0.142,0.044 -0.223,0.049 h -0.02 l -0.207,0.481 c -0.098,0.226 -0.198,0.454 -0.299,0.68 -0.014,0.03 -0.047,0.046 -0.081,0.037 -0.036,-0.009 -0.059,-0.049 -0.047,-0.083 0.066,-0.239 0.267,-1.243 0.267,-1.243 l -0.366,-0.092 c -0.102,-0.023 -0.204,-0.045 -0.307,-0.068 -0.085,-0.02 -0.168,-0.032 -0.253,-0.033 -0.083,0 -0.169,0.007 -0.251,0.024 l -0.032,0.009 -0.037,0.008 -0.076,0.019 c -0.051,0.011 -0.103,0.024 -0.154,0.035 l -0.367,0.098 c 0.041,0.181 0.164,1.004 0.219,1.245 0.008,0.032 -0.009,0.066 -0.041,0.079 -0.034,0.013 -0.075,-0.002 -0.09,-0.039 -0.094,-0.224 -0.187,-0.45 -0.278,-0.679 -0.065,-0.156 -0.126,-0.316 -0.188,-0.476 -0.021,0 -0.041,-0.002 -0.063,-0.002 -0.08,-0.005 -0.154,-0.023 -0.224,-0.049 -0.137,-0.053 -0.255,-0.133 -0.351,-0.231 -0.096,-0.096 -0.171,-0.205 -0.232,-0.318 -0.03,-0.056 -0.055,-0.113 -0.078,-0.175 -0.021,-0.06 -0.039,-0.119 -0.055,-0.175 -0.065,-0.229 -0.108,-0.457 -0.147,-0.684 -0.03,-0.177 -0.058,-0.352 -0.077,-0.533 -0.133,0.057 -0.267,0.122 -0.394,0.194 -0.018,0.009 -0.037,0.021 -0.056,0.032 -0.376,0.218 -0.718,0.491 -1.008,0.818 -0.489,0.54 -0.83,1.209 -0.978,1.922 -0.035,0.177 -0.058,0.356 -0.074,0.536 -0.012,0.183 -0.009,0.36 -0.007,0.555 l 0.012,0.988 h 0.761 0.318 c 0,0 0.002,-0.011 0.006,-0.017 L -5.11,0.338 C -4.926,0.125 -4.657,0 -4.375,0 h 1.37 l -0.301,1.123 c -0.048,0.19 -0.197,0.335 -0.38,0.386 h 2.997 C -0.872,1.458 -1.02,1.313 -1.07,1.123 L -1.371,0 Z"
       style="fill:#ceb44b;fill-opacity:1;fill-rule:nonzero;stroke:#28292b;stroke-width:0.899;stroke-linecap:butt;stroke-linejoin:miter;stroke-miterlimit:10;stroke-dasharray:none;stroke-opacity:1"
       transform="matrix(0.59919363,0,0,-0.59919363,22.158108,15.55983)"
       clip-path="url(#clipPath45)" />
    <path
       id="path46"
       d="M 0,0 2.71,-0.946 H 0.222 C 0.199,-0.613 0.125,-0.295 0,0"
       style="fill:#c41d28;fill-opacity:1;fill-rule:nonzero;stroke:#28292b;stroke-width:0.599;stroke-linecap:butt;stroke-linejoin:miter;stroke-miterlimit:10;stroke-dasharray:none;stroke-opacity:1"
       transform="matrix(0.59919363,0,0,-0.59919363,22.532301,13.896228)"
       clip-path="url(#clipPath47)" />
    <path
       id="path48"
       d="M 0,0 C -0.13,-0.305 -0.21,-0.636 -0.234,-0.98 H -2.826 Z"
       style="fill:#ceb44b;fill-opacity:1;fill-rule:nonzero;stroke:#28292b;stroke-width:0.899;stroke-linecap:butt;stroke-linejoin:miter;stroke-miterlimit:10;stroke-dasharray:none;stroke-opacity:1"
       transform="matrix(0.59919363,0,0,-0.59919363,19.150153,13.876094)"
       clip-path="url(#clipPath49)" />
    <path
       id="path50"
       d="M 0,0 C -0.365,0.004 -0.728,0.201 -0.771,0.44 -0.812,0.681 -0.51,0.828 -0.138,0.777 0.197,0.732 0.471,0.54 0.506,0.346 0.539,0.152 0.332,0 0.011,0 H 0"
       style="fill:#ceb44b;fill-opacity:1;fill-rule:nonzero;stroke:#28292b;stroke-width:0.899;stroke-linecap:butt;stroke-linejoin:miter;stroke-miterlimit:10;stroke-dasharray:none;stroke-opacity:1"
       transform="matrix(0.59919363,0,0,-0.59919363,16.628748,14.029369)"
       clip-path="url(#clipPath51)" />
    <path
       id="path52"
       d="M 0,0 C -0.13,0.203 0.09,0.457 0.454,0.555 0.78,0.643 1.106,0.572 1.213,0.404 1.32,0.237 1.182,0.022 0.881,-0.109 0.752,-0.167 0.611,-0.194 0.478,-0.194 0.267,-0.194 0.081,-0.124 0,0"
       style="fill:#ceb44b;fill-opacity:1;fill-rule:nonzero;stroke:#28292b;stroke-width:0.899;stroke-linecap:butt;stroke-linejoin:miter;stroke-miterlimit:10;stroke-dasharray:none;stroke-opacity:1"
       transform="matrix(0.59919363,0,0,-0.59919363,24.791861,13.912046)"
       clip-path="url(#clipPath53)" />
    <path
       id="path54"
       d="M 0,0 2.385,-1.475 C 1.864,-1.606 1.394,-1.872 1.019,-2.229 Z"
       style="fill:#ceb44b;fill-opacity:1;fill-rule:nonzero;stroke:#28292b;stroke-width:0.899;stroke-linecap:butt;stroke-linejoin:miter;stroke-miterlimit:10;stroke-dasharray:none;stroke-opacity:1"
       transform="matrix(0.59919363,0,0,-0.59919363,18.896455,11.911699)"
       clip-path="url(#clipPath55)" />
    <path
       id="path56"
       d="M 0,0 2.616,1.499 1.395,-0.8 C 1.015,-0.418 0.535,-0.138 0,0"
       style="fill:#ceb44b;fill-opacity:1;fill-rule:nonzero;stroke:#28292b;stroke-width:0.599;stroke-linecap:butt;stroke-linejoin:miter;stroke-miterlimit:10;stroke-dasharray:none;stroke-opacity:1"
       transform="matrix(0.59919363,0,0,-0.59919363,21.300001,12.818699)"
       clip-path="url(#clipPath57)" />
    <path
       id="path58"
       d="M 0,0 1.471,2.769 C 2.594,1.764 3.346,0.355 3.5,-1.227 Z"
       style="fill:#ceb44b;fill-opacity:1;fill-rule:nonzero;stroke:#28292b;stroke-width:0.899;stroke-linecap:butt;stroke-linejoin:miter;stroke-miterlimit:10;stroke-dasharray:none;stroke-opacity:1"
       transform="matrix(0.59919363,0,0,-0.59919363,22.428701,13.489255)"
       clip-path="url(#clipPath59)" />
    <path
       id="path60"
       d="M 0,0 C -0.204,0.13 -0.11,0.453 0.179,0.694 0.438,0.91 0.762,0.983 0.932,0.88 1.098,0.773 1.07,0.51 0.846,0.273 0.663,0.077 0.402,-0.051 0.195,-0.051 0.122,-0.051 0.054,-0.034 0,0"
       style="fill:#ceb44b;fill-opacity:1;fill-rule:nonzero;stroke:#28292b;stroke-width:0.899;stroke-linecap:butt;stroke-linejoin:miter;stroke-miterlimit:10;stroke-dasharray:none;stroke-opacity:1"
       transform="matrix(0.59919363,0,0,-0.59919363,24.052815,12.220406)"
       clip-path="url(#clipPath61)" />
    <path
       id="path62"
       d="M 0,0 C -0.324,0.169 -0.556,0.512 -0.485,0.743 -0.414,0.976 -0.078,0.967 0.232,0.754 0.508,0.562 0.664,0.267 0.606,0.077 0.572,-0.034 0.47,-0.094 0.333,-0.094 0.235,-0.094 0.118,-0.064 0,0"
       style="fill:#ceb44b;fill-opacity:1;fill-rule:nonzero;stroke:#28292b;stroke-width:0.899;stroke-linecap:butt;stroke-linejoin:miter;stroke-miterlimit:10;stroke-dasharray:none;stroke-opacity:1"
       transform="matrix(0.59919363,0,0,-0.59919363,17.310988,12.1923)"
       clip-path="url(#clipPath63)" />
    <path
       id="path64"
       d="m 0,0 c 1.143,-0.058 2.201,-0.429 3.097,-1.025 l -3.13,-1.794 z"
       style="fill:#ceb44b;fill-opacity:1;fill-rule:nonzero;stroke:#28292b;stroke-width:0.899;stroke-linecap:butt;stroke-linejoin:miter;stroke-miterlimit:10;stroke-dasharray:none;stroke-opacity:1"
       transform="matrix(0.59919363,0,0,-0.59919363,21.035217,10.890614)"
       clip-path="url(#clipPath65)" />
    <path
       id="path66"
       d="M 0,0 C 0.889,0.562 1.929,0.903 3.045,0.944 L 3.013,-1.866 Z"
       style="fill:#ceb44b;fill-opacity:1;fill-rule:nonzero;stroke:#28292b;stroke-width:0.899;stroke-linecap:butt;stroke-linejoin:miter;stroke-miterlimit:10;stroke-dasharray:none;stroke-opacity:1"
       transform="matrix(0.59919363,0,0,-0.59919363,18.86164,11.455293)"
       clip-path="url(#clipPath67)" />
    <path
       id="path68"
       d="M 0,0 C -0.168,0.293 -0.185,0.626 -0.051,0.771 0.083,0.92 0.335,0.846 0.532,0.585 0.752,0.293 0.816,-0.117 0.655,-0.293 0.606,-0.346 0.545,-0.372 0.481,-0.372 0.324,-0.372 0.133,-0.231 0,0"
       style="fill:#ceb44b;fill-opacity:1;fill-rule:nonzero;stroke:#28292b;stroke-width:0.899;stroke-linecap:butt;stroke-linejoin:miter;stroke-miterlimit:10;stroke-dasharray:none;stroke-opacity:1"
       transform="matrix(0.59919363,0,0,-0.59919363,18.717416,10.813979)"
       clip-path="url(#clipPath69)" />
    <path
       id="path70"
       d="M 0,0 C -0.241,0.019 -0.312,0.35 -0.171,0.698 -0.046,1.01 0.205,1.228 0.404,1.215 0.6,1.2 0.701,0.955 0.615,0.641 0.525,0.297 0.256,0 0.019,0 H 0"
       style="fill:#ceb44b;fill-opacity:1;fill-rule:nonzero;stroke:#28292b;stroke-width:0.899;stroke-linecap:butt;stroke-linejoin:miter;stroke-miterlimit:10;stroke-dasharray:none;stroke-opacity:1"
       transform="matrix(0.59919363,0,0,-0.59919363,22.68444,11.016746)"
       clip-path="url(#clipPath71)" />
    <path
       id="path72"
       d="M 0,0 C -0.02,0.334 0.115,0.64 0.301,0.711 0.484,0.78 0.677,0.604 0.737,0.282 0.801,-0.077 0.677,-0.474 0.451,-0.559 0.423,-0.572 0.393,-0.576 0.365,-0.576 0.177,-0.576 0.019,-0.331 0,0"
       style="fill:#ceb44b;fill-opacity:1;fill-rule:nonzero;stroke:#28292b;stroke-width:0.899;stroke-linecap:butt;stroke-linejoin:miter;stroke-miterlimit:10;stroke-dasharray:none;stroke-opacity:1"
       transform="matrix(0.59919363,0,0,-0.59919363,20.622075,10.254868)"
       clip-path="url(#clipPath73)" />
    <path
       id="path74"
       d="m 0,0 c 0.062,0 0.125,0.005 0.186,0.015 0.061,0.009 0.125,0.027 0.181,0.043 0.099,0.032 0.2,0.064 0.297,0.1 L 1.259,0.365 1.286,0.374 H 1.29 C 1.324,0.376 1.364,0.371 1.402,0.359 1.481,0.34 1.561,0.297 1.631,0.237 1.702,0.177 1.764,0.104 1.819,0.019 1.846,-0.022 1.872,-0.07 1.892,-0.113 1.912,-0.158 1.934,-0.209 1.952,-0.26 2.028,-0.464 2.089,-0.683 2.148,-0.901 2.192,-1.083 2.236,-1.268 2.269,-1.448 2.207,-1.471 2.146,-1.493 2.084,-1.512 1.998,-1.539 1.909,-1.567 1.822,-1.589 L 1.68,-1.623 C 1.618,-1.638 1.568,-1.657 1.52,-1.678 1.328,-1.759 1.166,-1.839 0.993,-1.911 0.654,-2.052 0.307,-2.144 -0.045,-2.146 c -0.351,0 -0.701,0.09 -1.04,0.229 -0.171,0.068 -0.337,0.151 -0.523,0.23 -0.046,0.019 -0.096,0.04 -0.15,0.058 l -0.085,0.025 -0.066,0.015 c -0.09,0.02 -0.177,0.05 -0.263,0.073 -0.035,0.013 -0.068,0.026 -0.1,0.036 -0.007,10e-4 -0.036,0.013 -0.059,0.022 0.031,0.185 0.077,0.373 0.123,0.557 0.058,0.218 0.118,0.437 0.194,0.641 0.02,0.051 0.039,0.102 0.062,0.147 0.018,0.043 0.047,0.091 0.072,0.132 0.055,0.085 0.118,0.158 0.188,0.218 0.07,0.06 0.15,0.103 0.229,0.122 0.039,0.012 0.079,0.017 0.112,0.015 0.016,0 0.032,0 0.049,-0.001 L -1.269,0.361 -0.675,0.148 C -0.626,0.13 -0.576,0.115 -0.528,0.096 L -0.453,0.071 -0.416,0.06 -0.372,0.047 c 0.114,-0.032 0.235,-0.049 0.351,-0.049 0.007,0 0.014,0 0.021,0.002"
       style="fill:#ceb44b;fill-opacity:1;fill-rule:nonzero;stroke:#28292b;stroke-width:0.899;stroke-linecap:butt;stroke-linejoin:miter;stroke-miterlimit:10;stroke-dasharray:none;stroke-opacity:1"
       transform="matrix(0.59919363,0,0,-0.59919363,20.864325,16.85127)"
       clip-path="url(#clipPath75)" />
    <path
       id="path76"
       d="M 0,0 C 0,0.382 0.169,0.724 0.434,0.959 0.66,1.157 0.955,1.277 1.279,1.277 1.601,1.277 1.896,1.157 2.122,0.959 2.387,0.724 2.554,0.382 2.554,0 2.554,-0.704 1.984,-1.277 1.279,-1.277 0.574,-1.277 0.002,-0.705 0,0"
       style="fill:#ceb44b;fill-opacity:1;fill-rule:nonzero;stroke:#28292b;stroke-width:0.899;stroke-linecap:butt;stroke-linejoin:miter;stroke-miterlimit:10;stroke-dasharray:none;stroke-opacity:1"
       transform="matrix(0.59919363,0,0,-0.59919363,16.120811,16.700273)"
       clip-path="url(#clipPath77)" />
    <path
       id="path78"
       d="M 0,0 C 0,0.384 0.167,0.726 0.434,0.961 0.657,1.159 0.953,1.277 1.276,1.277 1.599,1.277 1.892,1.159 2.12,0.961 2.385,0.726 2.553,0.384 2.553,0 2.553,-0.704 1.982,-1.275 1.276,-1.275 0.572,-1.275 0,-0.704 0,0"
       style="fill:#ceb44b;fill-opacity:1;fill-rule:nonzero;stroke:#28292b;stroke-width:0.899;stroke-linecap:butt;stroke-linejoin:miter;stroke-miterlimit:10;stroke-dasharray:none;stroke-opacity:1"
       transform="matrix(0.59919363,0,0,-0.59919363,24.022078,16.700273)"
       clip-path="url(#clipPath79)" />
    <path
       id="path80"
       d="m 0,0 -0.6,0.698 c -0.019,0.018 -0.004,0.051 0.023,0.051 h 1.198 c 0.202,0 0.38,-0.136 0.433,-0.333 l 0.152,-0.57 H 0.34 C 0.209,-0.154 0.084,-0.098 0,0"
       style="fill:#ceb44b;fill-opacity:1;fill-rule:nonzero;stroke:#28292b;stroke-width:0.899;stroke-linecap:butt;stroke-linejoin:miter;stroke-miterlimit:10;stroke-dasharray:none;stroke-opacity:1"
       transform="matrix(0.59919363,0,0,-0.59919363,19.347347,15.278989)"
       clip-path="url(#clipPath81)" />
    <path
       id="path82"
       d="m 0,0 c 0.052,0.197 0.229,0.333 0.433,0.333 h 1.198 c 0.026,0 0.039,-0.032 0.023,-0.051 L 1.051,-0.416 C 0.967,-0.514 0.845,-0.57 0.713,-0.57 h -0.865 z"
       style="fill:#ceb44b;fill-opacity:1;fill-rule:nonzero;stroke:#28292b;stroke-width:0.899;stroke-linecap:butt;stroke-linejoin:miter;stroke-miterlimit:10;stroke-dasharray:none;stroke-opacity:1"
       transform="matrix(0.59919363,0,0,-0.59919363,21.716321,15.02996)"
       clip-path="url(#clipPath83)" />
    <path
       id="path84"
       d="m 0,0 v -2.052 c -0.781,0.066 -1.537,0.13 -2.323,0.198 0,0.533 0,1.055 0.008,1.578 0.005,0.031 0.102,0.089 0.174,0.095 0.696,0.066 1.4,0.119 2.141,0.181"
       style="fill:#ceb44b;fill-opacity:1;fill-rule:evenodd;stroke:none"
       transform="matrix(0.59919363,0,0,-0.59919363,19.320384,20.018069)"
       clip-path="url(#clipPath85)" />
    <path
       id="path86"
       d="m 0,0 v -2.052 c -0.781,0.066 -1.537,0.13 -2.323,0.198 0,0.533 0,1.055 0.008,1.578 0.005,0.031 0.102,0.089 0.174,0.095 0.696,0.066 1.4,0.119 2.141,0.181 z"
       style="fill:none;stroke:#28292b;stroke-width:0.899;stroke-linecap:butt;stroke-linejoin:miter;stroke-miterlimit:10;stroke-dasharray:none;stroke-opacity:1"
       transform="matrix(0.59919363,0,0,-0.59919363,19.320384,20.018069)"
       clip-path="url(#clipPath87)" />
    <path
       id="path88"
       d="M 0,0 C 0.3,-0.145 0.467,-0.44 0.416,-0.739 0.306,-1.403 0.2,-2.046 0.083,-2.69 0.073,-2.754 0.06,-2.816 0.045,-2.88 c -0.054,-0.233 0.232,-0.412 0.462,-0.284 0.179,0.098 0.366,0.19 0.568,0.262 0.391,0.135 0.799,0.043 1.219,-0.038 0.192,-0.038 0.315,-0.201 0.284,-0.373 -0.081,-0.425 -0.157,-0.84 -0.255,-1.254 -0.042,-0.179 -0.2,-0.299 -0.506,-0.289 -0.885,0.024 -1.774,0.024 -2.659,0.062 -0.541,0.022 -0.906,0.372 -0.94,0.806 -0.079,0.974 -0.158,1.949 -0.263,2.921 -0.04,0.375 -0.147,0.745 -0.23,1.116 -0.039,0.188 0.052,0.27 0.259,0.413 0.053,0.038 0.223,0.109 0.275,0.132 0.683,0.194 1.116,-0.304 1.608,-0.53 C -0.087,0.041 -0.044,0.021 0,0"
       style="fill:#ceb44b;fill-opacity:1;fill-rule:evenodd;stroke:#28292b;stroke-width:0.899;stroke-linecap:butt;stroke-linejoin:miter;stroke-miterlimit:10;stroke-dasharray:none;stroke-opacity:1"
       transform="matrix(0.59919363,0,0,-0.59919363,17.064661,18.294849)"
       clip-path="url(#clipPath89)" />
    <path
       id="path90"
       d="m 0,0 v -2.054 c 0.78,0.068 1.537,0.132 2.323,0.201 0,0.531 0,1.054 -0.01,1.577 -0.003,0.032 -0.1,0.09 -0.174,0.096 C 1.444,-0.115 0.741,-0.06 0,0"
       style="fill:#ceb44b;fill-opacity:1;fill-rule:evenodd;stroke:#28292b;stroke-width:0.899;stroke-linecap:butt;stroke-linejoin:miter;stroke-miterlimit:10;stroke-dasharray:none;stroke-opacity:1"
       transform="matrix(0.59919363,0,0,-0.59919363,22.33277,20.031851)"
       clip-path="url(#clipPath91)" />
    <path
       id="path92"
       d="m 0,0 c -0.301,-0.145 -0.466,-0.438 -0.416,-0.737 0.111,-0.664 0.216,-1.309 0.333,-1.951 0.011,-0.062 0.024,-0.127 0.038,-0.189 0.054,-0.234 -0.231,-0.413 -0.461,-0.285 -0.18,0.098 -0.368,0.19 -0.569,0.262 -0.39,0.135 -0.798,0.043 -1.219,-0.038 -0.192,-0.037 -0.316,-0.201 -0.284,-0.372 0.081,-0.425 0.157,-0.843 0.255,-1.255 0.044,-0.178 0.201,-0.301 0.506,-0.291 0.886,0.026 1.775,0.026 2.66,0.064 0.541,0.022 0.904,0.372 0.939,0.805 0.079,0.974 0.159,1.948 0.262,2.923 0.042,0.374 0.149,0.743 0.231,1.115 C 2.315,0.239 2.224,0.322 2.017,0.465 1.962,0.5 1.792,0.574 1.74,0.596 1.059,0.79 0.625,0.293 0.134,0.064 0.088,0.043 0.043,0.023 0,0"
       style="fill:#ceb44b;fill-opacity:1;fill-rule:evenodd;stroke:#28292b;stroke-width:0.899;stroke-linecap:butt;stroke-linejoin:miter;stroke-miterlimit:10;stroke-dasharray:none;stroke-opacity:1"
       transform="matrix(0.59919363,0,0,-0.59919363,24.587956,18.309769)"
       clip-path="url(#clipPath93)" />
    <path
       id="path94"
       d="m 0,0 c 0,-2.191 -1.244,-3.969 -2.78,-3.969 -1.535,0 -2.781,1.778 -2.781,3.969 0,2.193 1.246,3.971 2.781,3.971 C -1.244,3.971 0,2.193 0,0"
       style="fill:#ceb44b;fill-opacity:1;fill-rule:evenodd;stroke:#28292b;stroke-width:0.899;stroke-linecap:butt;stroke-linejoin:miter;stroke-miterlimit:10;stroke-dasharray:none;stroke-opacity:1"
       transform="matrix(0.59919363,0,0,-0.59919363,22.444219,20.728175)"
       clip-path="url(#clipPath95)" />
    <path
       id="path96"
       d="M 0,0 C 0,0 2.422,-2.646 -0.188,-7.954"
       style="fill:none;stroke:#28292b;stroke-width:0.899;stroke-linecap:butt;stroke-linejoin:miter;stroke-miterlimit:10;stroke-dasharray:none;stroke-opacity:1"
       transform="matrix(0.59919363,0,0,-0.59919363,20.891532,18.340148)"
       clip-path="url(#clipPath97)" />
    <path
       id="path98"
       d="m 0,0 -2.794,-1.604 c 0.594,-0.144 1.08,-0.36 1.509,-0.759 z"
       style="fill:#ceb44b;fill-opacity:1;fill-rule:nonzero;stroke:#28292b;stroke-width:0.899;stroke-linecap:butt;stroke-linejoin:miter;stroke-miterlimit:10;stroke-dasharray:none;stroke-opacity:1"
       transform="matrix(0.59919363,0,0,-0.59919363,22.9059,11.876587)"
       clip-path="url(#clipPath99)" />
    <path
       id="path100"
       d="M 0,0 -1.378,2.836 C -2.5,1.832 -3.385,0.363 -3.541,-1.221 Z"
       style="fill:#ceb44b;fill-opacity:1;fill-rule:nonzero;stroke:#28292b;stroke-width:0.899;stroke-linecap:butt;stroke-linejoin:miter;stroke-miterlimit:10;stroke-dasharray:none;stroke-opacity:1"
       transform="matrix(0.59919363,0,0,-0.59919363,19.27245,13.470264)"
       clip-path="url(#clipPath101)" />
    <path
       id="path102"
       d="M 0,0 C 0.132,-0.305 0.214,-0.634 0.236,-0.98 H 2.828 Z"
       style="fill:#ceb44b;fill-opacity:1;fill-rule:nonzero;stroke:#28292b;stroke-width:0.899;stroke-linecap:butt;stroke-linejoin:miter;stroke-miterlimit:10;stroke-dasharray:none;stroke-opacity:1"
       transform="matrix(0.59919363,0,0,-0.59919363,22.515943,13.890718)"
       clip-path="url(#clipPath103)" />
    <path
       id="path104"
       d="M 0,0 0.041,0.138"
       style="fill:#28292b;fill-opacity:1;fill-rule:evenodd;stroke:none"
       transform="matrix(0.59919363,0,0,-0.59919363,24.760826,23.489499)"
       clip-path="url(#clipPath105)" />
    <path
       id="path106"
       d="M 0,0 4.921,-0.045 3.96,5.014 0.896,5.03 Z"
       style="fill:#ceb44b;fill-opacity:1;fill-rule:evenodd;stroke:#28292b;stroke-width:0.899;stroke-linecap:butt;stroke-linejoin:miter;stroke-miterlimit:10;stroke-dasharray:none;stroke-opacity:1"
       transform="matrix(0.59919363,0,0,-0.59919363,21.175909,25.914672)"
       clip-path="url(#clipPath107)" />
  </g>
</svg>
