<?xml version="1.0" encoding="UTF-8" standalone="no"?>
<!-- Created with Inkscape (http://www.inkscape.org/) -->

<svg
   width="185.03242mm"
   height="42.838505mm"
   viewBox="0 0 185.03242 42.838505"
   version="1.1"
   id="svg1"
   xmlns="http://www.w3.org/2000/svg"
   xmlns:svg="http://www.w3.org/2000/svg">
  <defs
     id="defs1">
    <clipPath
       clipPathUnits="userSpaceOnUse"
       id="clipPath417">
      <path
         d="M 0,841.89 H 595.276 V 0 H 0 Z"
         transform="translate(-55.506802,-112.84191)"
         id="path417" />
    </clipPath>
    <clipPath
       clipPathUnits="userSpaceOnUse"
       id="clipPath419">
      <path
         d="M 0,841.89 H 595.276 V 0 H 0 Z"
         transform="translate(-137.87991,-194.17101)"
         id="path419" />
    </clipPath>
    <clipPath
       clipPathUnits="userSpaceOnUse"
       id="clipPath421">
      <path
         d="M 0,841.89 H 595.276 V 0 H 0 Z"
         transform="translate(-138.4189,-192.8761)"
         id="path421" />
    </clipPath>
    <clipPath
       clipPathUnits="userSpaceOnUse"
       id="clipPath423">
      <path
         d="M 0,841.89 H 595.276 V 0 H 0 Z"
         transform="translate(-137.5381,-144.3673)"
         id="path423" />
    </clipPath>
    <clipPath
       clipPathUnits="userSpaceOnUse"
       id="clipPath425">
      <path
         d="M 0,841.89 H 595.276 V 0 H 0 Z"
         transform="translate(-51.291001,-195.213)"
         id="path425" />
    </clipPath>
    <clipPath
       clipPathUnits="userSpaceOnUse"
       id="clipPath427">
      <path
         d="M 0,841.89 H 595.276 V 0 H 0 Z"
         transform="translate(-111.25,-139.70811)"
         id="path427" />
    </clipPath>
    <clipPath
       clipPathUnits="userSpaceOnUse"
       id="clipPath429">
      <path
         d="M 0,841.89 H 595.276 V 0 H 0 Z"
         transform="translate(-88.675802,-171.3693)"
         id="path429" />
    </clipPath>
    <clipPath
       clipPathUnits="userSpaceOnUse"
       id="clipPath431">
      <path
         d="M 0,841.89 H 595.276 V 0 H 0 Z"
         transform="translate(-102.2271,-171.3693)"
         id="path431" />
    </clipPath>
    <clipPath
       clipPathUnits="userSpaceOnUse"
       id="clipPath433">
      <path
         d="M 0,841.89 H 595.276 V 0 H 0 Z"
         transform="translate(-81.588902,-169.64271)"
         id="path433" />
    </clipPath>
    <clipPath
       clipPathUnits="userSpaceOnUse"
       id="clipPath435">
      <path
         d="M 0,841.89 H 595.276 V 0 H 0 Z"
         transform="translate(-83.941405,-144.9825)"
         id="path435" />
    </clipPath>
    <clipPath
       clipPathUnits="userSpaceOnUse"
       id="clipPath437">
      <path
         d="M 0,841.89 H 595.276 V 0 H 0 Z"
         transform="translate(-92.125502,-156.8566)"
         id="path437" />
    </clipPath>
    <clipPath
       clipPathUnits="userSpaceOnUse"
       id="clipPath439">
      <path
         d="M 0,841.89 H 595.276 V 0 H 0 Z"
         transform="translate(-94.552705,-197.1154)"
         id="path439" />
    </clipPath>
    <clipPath
       clipPathUnits="userSpaceOnUse"
       id="clipPath441">
      <path
         d="M 0,841.89 H 595.276 V 0 H 0 Z"
         transform="translate(-98.748002,-177.8175)"
         id="path441" />
    </clipPath>
    <clipPath
       clipPathUnits="userSpaceOnUse"
       id="clipPath443">
      <path
         d="M 0,841.89 H 595.276 V 0 H 0 Z"
         transform="translate(-99.939505,-183.10071)"
         id="path443" />
    </clipPath>
    <clipPath
       clipPathUnits="userSpaceOnUse"
       id="clipPath445">
      <path
         d="M 0,841.89 H 595.276 V 0 H 0 Z"
         transform="translate(-89.196805,-183.1642)"
         id="path445" />
    </clipPath>
    <clipPath
       clipPathUnits="userSpaceOnUse"
       id="clipPath447">
      <path
         d="M 0,841.89 H 595.276 V 0 H 0 Z"
         transform="translate(-81.1846,-182.674)"
         id="path447" />
    </clipPath>
    <clipPath
       clipPathUnits="userSpaceOnUse"
       id="clipPath449">
      <path
         d="M 0,841.89 H 595.276 V 0 H 0 Z"
         transform="translate(-107.11821,-183.049)"
         id="path449" />
    </clipPath>
    <clipPath
       clipPathUnits="userSpaceOnUse"
       id="clipPath451">
      <path
         d="M 0,841.89 H 595.276 V 0 H 0 Z"
         transform="translate(-88.388702,-189.4015)"
         id="path451" />
    </clipPath>
    <clipPath
       clipPathUnits="userSpaceOnUse"
       id="clipPath453">
      <path
         d="M 0,841.89 H 595.276 V 0 H 0 Z"
         transform="translate(-96.0244,-186.5236)"
         id="path453" />
    </clipPath>
    <clipPath
       clipPathUnits="userSpaceOnUse"
       id="clipPath455">
      <path
         d="M 0,841.89 H 595.276 V 0 H 0 Z"
         transform="translate(-99.609902,-184.39071)"
         id="path455" />
    </clipPath>
    <clipPath
       clipPathUnits="userSpaceOnUse"
       id="clipPath457">
      <path
         d="M 0,841.89 H 595.276 V 0 H 0 Z"
         transform="translate(-104.7705,-188.424)"
         id="path457" />
    </clipPath>
    <clipPath
       clipPathUnits="userSpaceOnUse"
       id="clipPath459">
      <path
         d="M 0,841.89 H 595.276 V 0 H 0 Z"
         transform="translate(-83.3506,-188.51181)"
         id="path459" />
    </clipPath>
    <clipPath
       clipPathUnits="userSpaceOnUse"
       id="clipPath461">
      <path
         d="M 0,841.89 H 595.276 V 0 H 0 Z"
         transform="translate(-95.183102,-192.64761)"
         id="path461" />
    </clipPath>
    <clipPath
       clipPathUnits="userSpaceOnUse"
       id="clipPath463">
      <path
         d="M 0,841.89 H 595.276 V 0 H 0 Z"
         transform="translate(-88.278302,-190.85361)"
         id="path463" />
    </clipPath>
    <clipPath
       clipPathUnits="userSpaceOnUse"
       id="clipPath465">
      <path
         d="M 0,841.89 H 595.276 V 0 H 0 Z"
         transform="translate(-87.8203,-192.8907)"
         id="path465" />
    </clipPath>
    <clipPath
       clipPathUnits="userSpaceOnUse"
       id="clipPath467">
      <path
         d="M 0,841.89 H 595.276 V 0 H 0 Z"
         transform="translate(-100.4199,-192.2491)"
         id="path467" />
    </clipPath>
    <clipPath
       clipPathUnits="userSpaceOnUse"
       id="clipPath469">
      <path
         d="M 0,841.89 H 595.276 V 0 H 0 Z"
         transform="translate(-93.871105,-194.6632)"
         id="path469" />
    </clipPath>
    <clipPath
       clipPathUnits="userSpaceOnUse"
       id="clipPath471">
      <path
         d="M 0,841.89 H 595.276 V 0 H 0 Z"
         transform="translate(-94.6411,-173.7111)"
         id="path471" />
    </clipPath>
    <clipPath
       clipPathUnits="userSpaceOnUse"
       id="clipPath473">
      <path
         d="M 0,841.89 H 595.276 V 0 H 0 Z"
         transform="translate(-79.572302,-174.1906)"
         id="path473" />
    </clipPath>
    <clipPath
       clipPathUnits="userSpaceOnUse"
       id="clipPath475">
      <path
         d="M 0,841.89 H 595.276 V 0 H 0 Z"
         transform="translate(-104.67141,-174.1954)"
         id="path475" />
    </clipPath>
    <clipPath
       clipPathUnits="userSpaceOnUse"
       id="clipPath477">
      <path
         d="M 0,841.89 H 595.276 V 0 H 0 Z"
         transform="translate(-89.820805,-178.70721)"
         id="path477" />
    </clipPath>
    <clipPath
       clipPathUnits="userSpaceOnUse"
       id="clipPath479">
      <path
         d="M 0,841.89 H 595.276 V 0 H 0 Z"
         transform="translate(-97.348105,-179.4991)"
         id="path479" />
    </clipPath>
    <clipPath
       clipPathUnits="userSpaceOnUse"
       id="clipPath481">
      <path
         d="M 0,841.89 H 595.276 V 0 H 0 Z"
         transform="translate(-89.732402,-163.6534)"
         id="path481" />
    </clipPath>
    <clipPath
       clipPathUnits="userSpaceOnUse"
       id="clipPath483">
      <path
         d="M 0,841.89 H 595.276 V 0 H 0 Z"
         transform="translate(-82.570802,-169.12611)"
         id="path483" />
    </clipPath>
    <clipPath
       clipPathUnits="userSpaceOnUse"
       id="clipPath485">
      <path
         d="M 0,841.89 H 595.276 V 0 H 0 Z"
         transform="translate(-99.305702,-163.6095)"
         id="path485" />
    </clipPath>
    <clipPath
       clipPathUnits="userSpaceOnUse"
       id="clipPath487">
      <path
         d="M 0,841.89 H 595.276 V 0 H 0 Z"
         transform="translate(-106.4692,-169.0812)"
         id="path487" />
    </clipPath>
    <clipPath
       clipPathUnits="userSpaceOnUse"
       id="clipPath489">
      <path
         d="M 0,841.89 H 595.276 V 0 H 0 Z"
         transform="translate(-99.659702,-161.3976)"
         id="path489" />
    </clipPath>
    <clipPath
       clipPathUnits="userSpaceOnUse"
       id="clipPath491">
      <path
         d="M 0,841.89 H 595.276 V 0 H 0 Z"
         transform="translate(-94.725602,-168.9835)"
         id="path491" />
    </clipPath>
    <clipPath
       clipPathUnits="userSpaceOnUse"
       id="clipPath493">
      <path
         d="M 0,841.89 H 595.276 V 0 H 0 Z"
         transform="translate(-101.12601,-189.5148)"
         id="path493" />
    </clipPath>
    <clipPath
       clipPathUnits="userSpaceOnUse"
       id="clipPath495">
      <path
         d="M 0,841.89 H 595.276 V 0 H 0 Z"
         transform="translate(-89.583002,-184.4523)"
         id="path495" />
    </clipPath>
    <clipPath
       clipPathUnits="userSpaceOnUse"
       id="clipPath497">
      <path
         d="M 0,841.89 H 595.276 V 0 H 0 Z"
         transform="translate(-99.888205,-183.1212)"
         id="path497" />
    </clipPath>
    <clipPath
       clipPathUnits="userSpaceOnUse"
       id="clipPath499">
      <path
         d="M 0,841.89 H 595.276 V 0 H 0 Z"
         transform="translate(-107.51901,-152.6281)"
         id="path499" />
    </clipPath>
    <clipPath
       clipPathUnits="userSpaceOnUse"
       id="clipPath501">
      <path
         d="M 0,841.89 H 595.276 V 0 H 0 Z"
         transform="translate(-95.629405,-144.921)"
         id="path501" />
    </clipPath>
    <clipPath
       clipPathUnits="userSpaceOnUse"
       id="clipPath503">
      <path
         d="M 0,841.89 H 595.276 V 0 H 0 Z"
         transform="translate(-84.313,-114.588)"
         id="path503" />
    </clipPath>
    <clipPath
       clipPathUnits="userSpaceOnUse"
       id="clipPath505">
      <path
         d="m 84.313,114.588 v -7.851 h 1.875 v 3.049 h 3.035 v 1.563 h -3.038 v 1.621 h 3.296 v 1.618 z"
         transform="translate(-84.913105,-116.2423)"
         id="path505" />
    </clipPath>
    <clipPath
       clipPathUnits="userSpaceOnUse"
       id="clipPath507">
      <path
         d="M 0,841.89 H 595.276 V 0 H 0 Z"
         transform="translate(-92.252905,-114.5802)"
         id="path507" />
    </clipPath>
    <clipPath
       clipPathUnits="userSpaceOnUse"
       id="clipPath509">
      <path
         d="m 92.253,114.58 v -7.845 h 1.895 v 2.956 h 0.944 c 0.407,0 0.799,0.048 1.177,0.135 v 0 c 0.377,0.089 0.709,0.231 0.995,0.422 v 0 c 0.291,0.188 0.52,0.444 0.688,0.758 v 0 c 0.17,0.313 0.256,0.701 0.256,1.16 v 0 c 0,0.45 -0.077,0.83 -0.239,1.137 v 0 c -0.158,0.307 -0.375,0.554 -0.656,0.743 v 0 c -0.275,0.186 -0.6,0.326 -0.978,0.409 v 0 c -0.369,0.084 -0.77,0.131 -1.199,0.131 v 0 z m 1.895,-1.527 h 0.834 c 0.169,0 0.335,-0.01 0.489,-0.031 v 0 c 0.163,-0.026 0.304,-0.067 0.43,-0.136 v 0 c 0.128,-0.066 0.226,-0.158 0.3,-0.276 v 0 c 0.075,-0.121 0.11,-0.273 0.11,-0.457 v 0 c 0,-0.183 -0.035,-0.335 -0.11,-0.458 v 0 c -0.074,-0.123 -0.176,-0.223 -0.304,-0.295 v 0 c -0.129,-0.073 -0.275,-0.127 -0.439,-0.154 v 0 c -0.162,-0.029 -0.334,-0.044 -0.51,-0.044 v 0 h -0.8 z"
         transform="translate(-92.9443,-116.4933)"
         id="path509" />
    </clipPath>
    <clipPath
       clipPathUnits="userSpaceOnUse"
       id="clipPath511">
      <path
         d="M 0,841.89 H 595.276 V 0 H 0 Z"
         transform="translate(-100.4614,-114.588)"
         id="path511" />
    </clipPath>
    <clipPath
       clipPathUnits="userSpaceOnUse"
       id="clipPath513">
      <path
         d="m 100.462,114.588 v -7.851 h 1.851 l -0.003,3.117 h 0.647 l 1.708,-3.117 h 2.216 l -2.053,3.362 c 0.509,0.157 0.914,0.412 1.197,0.777 v 0 c 0.289,0.358 0.436,0.807 0.436,1.339 v 0 c 0,0.453 -0.085,0.83 -0.257,1.132 v 0 c -0.17,0.304 -0.399,0.547 -0.682,0.733 v 0 c -0.283,0.184 -0.605,0.314 -0.966,0.393 v 0 c -0.36,0.078 -0.728,0.115 -1.104,0.115 v 0 z m 1.836,-1.527 h 1.015 c 0.139,0 0.288,-0.016 0.441,-0.034 v 0 c 0.152,-0.022 0.291,-0.064 0.411,-0.13 v 0 c 0.124,-0.062 0.222,-0.148 0.303,-0.263 v 0 c 0.079,-0.115 0.116,-0.268 0.116,-0.452 v 0 c 0,-0.2 -0.042,-0.36 -0.128,-0.487 v 0 c -0.087,-0.127 -0.194,-0.223 -0.328,-0.287 v 0 c -0.136,-0.069 -0.282,-0.115 -0.448,-0.137 v 0 c -0.161,-0.026 -0.323,-0.044 -0.477,-0.044 v 0 h -0.905 z"
         transform="translate(-101.20611,-116.64471)"
         id="path513" />
    </clipPath>
  </defs>
  <g
     id="layer1"
     transform="translate(-3.8189423,-2.0662127)">
    <path
       id="path415"
       d="m 46.762371,20.144801 v -1.04593 h -3.98529 v 6.71793 h 1.05007 v -2.836 h 2.53008 v -1.04593 h -2.53008 v -1.79007 z m 4.88962,0.004 v -1.03353 h -3.98528 v 6.69313 h 3.98528 v -1.04593 h -2.93522 v -1.85208 h 2.53008 v -1.04593 h -2.53008 v -1.71566 z m 3.06441,-1.03353 h -1.90582 v 6.69313 h 1.90582 c 2.12494,0 3.44786,-1.28157 3.44786,-3.34036 0,-2.07119 -1.32292,-3.3569 -3.44786,-3.35277 z m 0.008,5.6472 h -0.86816 v -4.6054 h 0.85576 c 1.46761,0 2.38952,0.88883 2.38952,2.30684 0,1.41386 -0.91778,2.29856 -2.37712,2.29856 z m 8.45633,-4.61367 v -1.03353 h -3.98528 v 6.69313 h 3.98528 v -1.04593 h -2.93522 v -1.85208 h 2.53008 v -1.04593 h -2.53008 v -1.71566 z m 6.12883,5.6596 -1.94717,-2.6789 c 0.76895,-0.24805 1.32292,-1.00046 1.32292,-1.86449 0,-1.19062 -1.02113,-2.14974 -2.2655,-2.14974 h -2.07946 l 0.004,6.69313 h 1.05006 v -2.59209 h 0.82269 l 1.80247,2.59209 z m -3.91914,-3.46438 v -2.18695 h 1.0542 c 0.62425,0 1.15755,0.46302 1.15755,1.08314 0,0.59944 -0.52503,1.10794 -1.15755,1.10381 z m 9.36067,3.46438 h 1.13688 l -3.1502,-6.82955 h -0.062 l -3.14606,6.82955 h 1.13688 l 0.45889,-1.01699 h 3.16673 z m -3.22048,-1.91822 1.17822,-2.6169 1.17823,2.6169 z m 7.69565,2.02571 c 0.99633,0 1.7322,-0.43408 2.30684,-1.00459 l -0.60358,-0.84749 c -0.46302,0.45888 -1.05006,0.79788 -1.73633,0.79788 -1.19889,0 -2.37711,-1.04179 -2.37711,-2.39365 0,-1.33945 1.16168,-2.40192 2.37298,-2.40192 0.65732,0 1.26504,0.31006 1.73633,0.78135 l 0.60771,-0.82683 c -0.65319,-0.64078 -1.45521,-1.00872 -2.32337,-1.02112 -1.88102,0 -3.45612,1.57923 -3.45612,3.46439 0,1.88929 1.5751,3.45198 3.47265,3.45198 z m 3.21014,-0.10749 h 1.05007 v -6.69313 h -1.05007 z m 5.65961,-7.2471 0.98805,-1.35599 h -0.92604 l -0.82269,1.35599 z m -0.11989,7.35459 c 1.90582,0 3.468516,-1.55443 3.468516,-3.44785 0,-1.90996 -1.562696,-3.46852 -3.464386,-3.46852 -1.90583,0 -3.46025,1.55856 -3.46025,3.46852 0,1.89342 1.55442,3.44785 3.45612,3.44785 z m 0,-1.06247 c -1.31878,0 -2.39779,-1.07487 -2.39779,-2.39365 0,-1.32292 1.07901,-2.40192 2.39779,-2.40192 1.31878,0 2.406046,1.079 2.406046,2.40192 0,1.31878 -1.087266,2.39365 -2.406046,2.39365 z m 8.826326,-5.75468 v 4.36562 l -4.27054,-4.46484 h -0.0537 v 6.81715 h 1.05006 v -4.36562 l 4.27881,4.47311 h 0.0496 v -6.82542 z m 4.969213,6.70966 h 1.05006 v -2.31923 h 1.18649 c 1.29398,0 2.35645,-0.97152 2.35645,-2.16628 0,-1.21543 -1.06247,-2.20762 -2.35645,-2.20762 h -2.23655 z m 2.23655,-3.36103 -1.18649,-0.004 v -2.28617 h 1.18649 c 0.71934,0 1.30225,0.5209 1.30225,1.15755 0,0.62839 -0.58291,1.13688 -1.30225,1.13275 z m 7.2409,-2.29857 v -1.03353 h -3.98528 v 6.69313 h 3.98528 v -1.04593 h -2.93522 v -1.85208 h 2.53008 v -1.04593 h -2.53008 v -1.71566 z m 6.12883,5.6596 -1.94717,-2.6789 c 0.76895,-0.24805 1.32292,-1.00046 1.32292,-1.86449 0,-1.19062 -1.02113,-2.14974 -2.2655,-2.14974 h -2.07946 l 0.004,6.69313 h 1.05007 v -2.59209 h 0.82268 l 1.80248,2.59209 z m -3.91914,-3.46438 v -2.18695 h 1.0542 c 0.62425,0 1.15755,0.46302 1.15755,1.08314 0,0.59944 -0.52503,1.10794 -1.15755,1.10381 z m 6.86573,3.58841 c 1.42627,0 2.53421,-1.12448 2.53421,-2.66237 v -4.15479 h -1.05833 v 4.15065 c 0,0.92605 -0.66146,1.60404 -1.48001,1.60404 -0.81856,0 -1.46762,-0.67799 -1.46762,-1.60404 v -4.15065 h -1.05419 v 4.15479 c 0,1.53789 1.10381,2.66237 2.52594,2.66237 z m 7.87652,-0.12403 h 1.13688 l -3.15019,-6.82955 h -0.062 l -3.14606,6.82955 h 1.13689 l 0.45888,-1.01699 h 3.16673 z m -3.22047,-1.91822 1.17822,-2.6169 1.17822,2.6169 z m 9.49296,-4.79144 v 4.36562 l -4.27054,-4.46484 h -0.0537 v 6.81715 h 1.05007 v -4.36562 l 4.2788,4.47311 h 0.0496 v -6.82542 z m 7.08173,6.70966 h 1.13688 l -3.15019,-6.82955 h -0.062 l -3.14606,6.82955 h 1.13688 l 0.45888,-1.01699 h 3.16674 z m -3.22047,-1.91822 1.17822,-2.6169 1.17822,2.6169 z m 9.63352,-4.77491 h -1.90583 v 6.69313 h 1.90583 c 2.12494,0 3.44785,-1.28157 3.44785,-3.34036 0,-2.07119 -1.32291,-3.3569 -3.44785,-3.35277 z m 0.008,5.6472 h -0.86816 v -4.6054 h 0.85576 c 1.46761,0 2.38952,0.88883 2.38952,2.30684 0,1.41386 -0.91778,2.29856 -2.37712,2.29856 z m 8.45633,-4.61367 v -1.03353 h -3.98528 v 6.69313 h 3.98528 v -1.04593 h -2.93522 v -1.85208 h 2.53008 v -1.04593 h -2.53008 v -1.71566 z m 8.68784,5.6596 -1.94716,-2.6789 c 0.76894,-0.24805 1.32291,-1.00046 1.32291,-1.86449 0,-1.19062 -1.02112,-2.14974 -2.26549,-2.14974 h -2.07946 l 0.004,6.69313 h 1.05006 v -2.59209 h 0.82269 l 1.80247,2.59209 z m -3.91912,-3.46438 v -2.18695 h 1.0542 c 0.62425,0 1.15755,0.46302 1.15755,1.08314 0,0.59944 -0.52503,1.10794 -1.15755,1.10381 z m 6.86573,3.58841 c 1.42627,0 2.53421,-1.12448 2.53421,-2.66237 v -4.15479 h -1.05833 v 4.15065 c 0,0.92605 -0.66146,1.60404 -1.48002,1.60404 -0.81855,0 -1.4676,-0.67799 -1.4676,-1.60404 v -4.15065 h -1.05421 v 4.15479 c 0,1.53789 1.10381,2.66237 2.52595,2.66237 z m 10.14511,-3.77858 h -3.16673 v 0.96325 h 2.07119 v 0.0207 c 0,1.02112 -0.86402,1.72392 -2.01331,1.72392 -1.42627,0 -2.4722,-1.079 -2.4722,-2.39365 0,-1.38493 1.15755,-2.40605 2.37712,-2.40605 0.63665,0 1.33945,0.32246 1.86448,0.83922 l 0.58705,-0.8723 c -0.63252,-0.61598 -1.59577,-1.02112 -2.43913,-1.02526 -1.90169,0 -3.45612,1.5627 -3.45612,3.46439 0,1.89756 1.54616,3.45199 3.49333,3.45199 1.74046,0 3.18326,-1.25264 3.18326,-3.24115 0,-0.19017 -0.0124,-0.37207 -0.0289,-0.52503 z m 4.07314,-0.11576 c 0.24805,0 0.75241,-0.48369 0.75241,-1.20303 0,-0.88883 -0.78135,-1.71979 -1.93476,-1.71979 h -1.82728 v 6.69313 h 2.50114 c 1.33118,0 2.1084,-1.01285 2.1084,-2.03811 0,-1.0418 -0.8475,-1.7322 -1.59991,-1.7322 z m -1.12034,-1.90169 c 0.47129,0 0.88883,0.35553 0.88883,0.83509 0,0.47542 -0.38447,0.83509 -0.90124,0.83096 l -0.83095,0.004 v -1.67018 z m 0.51676,4.64674 h -1.36012 v -2.05052 l 1.34359,-0.004 c 0.76067,0 1.19062,0.46302 1.19062,0.97152 0,0.64492 -0.57051,1.08313 -1.17409,1.08313 z m 3.90364,1.02526 h 1.04593 v -2.8608 l 2.22002,-3.83233 H 187.669 l -1.56269,2.66651 -1.55856,-2.66651 h -1.18236 l 2.22002,3.83233 z m 0,0"
       style="fill:#050606;fill-opacity:1;fill-rule:nonzero;stroke:none;stroke-width:0.352778"
       aria-label="FEDERACIÓN PERUANA DE RUGBY" />
    <path
       id="path416"
       d="M 0,0 C -0.46,0.584 -0.906,1.182 -1.337,1.785 -3.08,4.22 -4.603,6.818 -5.884,9.55 c -2.986,6.367 -4.653,13.475 -4.653,20.973 v 54.286 c 0,0.816 0.538,1.534 1.324,1.762 L 38.55,100.44 87.064,86.568 c 0.788,-0.225 1.33,-0.946 1.33,-1.764 V 30.523 c 0,-7.127 -1.506,-13.904 -4.22,-20.024 C 82.775,7.344 81.058,4.364 79.062,1.599 72.399,-7.63 38.833,-20.992 38.833,-20.992 38.833,-20.992 6.667,-8.492 0,0"
       style="fill:#ceb44b;fill-opacity:1;fill-rule:nonzero;stroke:none"
       transform="matrix(0.35277776,0,0,-0.35277776,7.5361614,37.499211)"
       clip-path="url(#clipPath417)" />
    <path
       id="path418"
       d="M 0,0 -43.785,12.521 -86.896,0.005 c -0.292,-0.086 -0.496,-0.36 -0.496,-0.664 v -49.304 c 0,-6.515 1.392,-12.781 4.132,-18.634 1.132,-2.407 2.489,-4.726 4.039,-6.894 0.387,-0.539 0.784,-1.072 1.191,-1.589 2.73,-3.482 10.521,-7.804 18.046,-11.422 7.519,-3.619 14.779,-6.532 16.448,-7.194 3.422,1.387 30.278,12.463 35.75,20.039 1.785,2.466 3.307,5.127 4.536,7.904 2.491,5.614 3.756,11.599 3.756,17.79 V -0.662 C 0.506,-0.36 0.298,-0.083 0,0"
       style="fill:#ffffff;fill-opacity:1;fill-rule:nonzero;stroke:none"
       transform="matrix(0.35277776,0,0,-0.35277776,36.595551,8.8081109)"
       clip-path="url(#clipPath419)" />
    <path
       id="path420"
       d="m 0,0 -43.504,-40.704 -43.52,40.64 42.978,-46.895 z"
       style="fill:#bc1c2c;fill-opacity:1;fill-rule:nonzero;stroke:none"
       transform="matrix(0.35277776,0,0,-0.35277776,36.785701,9.2649309)"
       clip-path="url(#clipPath421)" />
    <path
       id="path422"
       d="m 0,0 c 0,-6.068 -1.241,-11.94 -3.681,-17.446 -1.206,-2.723 -2.704,-5.329 -4.452,-7.75 -0.945,-1.31 -2.546,-2.732 -4.555,-4.181 L -43.276,3.004 -74.049,-29.37 c -1.264,0.961 -2.283,1.895 -2.973,2.775 -0.399,0.51 -0.791,1.035 -1.171,1.56 -1.518,2.128 -2.85,4.401 -3.957,6.762 -2.692,5.74 -4.056,11.886 -4.056,18.273 v 48.354 c 0,0.03 0.006,0.064 0.009,0.091 L -43.276,3.004 -0.022,48.509 C -0.008,48.457 0,48.406 0,48.353 Z"
       style="fill:#bc1c2c;fill-opacity:1;fill-rule:nonzero;stroke:none"
       transform="matrix(0.35277776,0,0,-0.35277776,36.474971,26.377751)"
       clip-path="url(#clipPath423)" />
    <path
       id="path424"
       d="m 0,0 c -1.104,-0.321 -1.875,-1.347 -1.875,-2.491 v -48.353 c 0,-6.671 1.43,-13.09 4.237,-19.087 1.158,-2.468 2.549,-4.841 4.138,-7.063 0.392,-0.551 0.802,-1.099 1.216,-1.625 6.034,-7.685 33.818,-18.543 34.999,-19 l 0.348,-0.137 0.352,0.141 c 1.232,0.487 30.227,12.1 36.254,20.45 1.826,2.529 3.39,5.254 4.65,8.098 2.55,5.752 3.845,11.881 3.845,18.223 v 48.351 c 0,1.146 -0.775,2.172 -1.882,2.49 L 42.804,12.431 Z m 26.923,-88.641 c -7.382,3.549 -15.02,7.787 -17.697,11.201 -0.4,0.509 -0.789,1.035 -1.17,1.561 -1.517,2.126 -2.851,4.4 -3.956,6.763 -2.693,5.737 -4.058,11.884 -4.058,18.272 v 48.353 c 0,0.299 0.203,0.569 0.49,0.649 l 42.276,12.28 42.946,-12.282 c 0.289,-0.083 0.493,-0.353 0.493,-0.649 v -48.351 c 0,-6.07 -1.241,-11.942 -3.681,-17.448 -1.206,-2.723 -2.701,-5.329 -4.45,-7.75 -5.366,-7.432 -31.704,-18.293 -35.063,-19.652 -1.637,0.648 -8.755,3.504 -16.13,7.053"
       style="fill:#ffffff;fill-opacity:1;fill-rule:nonzero;stroke:none"
       transform="matrix(0.35277776,0,0,-0.35277776,6.0489114,8.4405209)"
       clip-path="url(#clipPath425)" />
    <path
       id="path426"
       d="m 0,0 h -0.582 c -2.648,0 -5.295,0.006 -7.943,-0.004 -0.308,0 -0.413,0.084 -0.41,0.417 0.011,1.432 -0.01,2.863 0.011,4.295 0.007,0.375 0.105,0.454 -0.261,0.454 -5.144,-0.013 -10.491,0.017 -15.635,0.017 h -0.456 V 4.714 c 0,-1.423 -0.01,-2.843 0.01,-4.259 0.004,-0.366 -0.098,-0.459 -0.449,-0.459 -2.659,0.015 -5.323,0.004 -7.979,0.002 h -0.439 c -0.013,-0.142 -0.033,-0.22 -0.028,-0.299 0.072,-0.917 0.102,-1.844 0.234,-2.754 0.564,-3.868 2.193,-7.166 5.069,-9.761 2.966,-2.683 6.494,-4.02 10.392,-4.333 2.841,-0.218 5.613,0.171 8.27,1.257 3.886,1.592 6.811,4.261 8.602,8.187 0.727,1.601 1.155,3.298 1.388,5.043 C -0.093,-1.806 -0.067,-0.931 0,0"
       style="fill:#ceb44b;fill-opacity:1;fill-rule:evenodd;stroke:#28292b;stroke-width:1.754;stroke-linecap:butt;stroke-linejoin:miter;stroke-miterlimit:10;stroke-dasharray:none;stroke-opacity:1"
       transform="matrix(0.35277776,0,0,-0.35277776,27.201121,28.021411)"
       clip-path="url(#clipPath427)" />
    <path
       id="path428"
       d="m 0,0 -1.783,-2.486 8.29,-2.015 0.065,1.588 z"
       style="fill:#ceb44b;fill-opacity:1;fill-rule:evenodd;stroke:#28292b;stroke-width:1.754;stroke-linecap:butt;stroke-linejoin:miter;stroke-miterlimit:10;stroke-dasharray:none;stroke-opacity:1"
       transform="matrix(0.35277776,0,0,-0.35277776,19.237441,16.852051)"
       clip-path="url(#clipPath429)" />
    <path
       id="path430"
       d="M 0,0 1.933,-2.751 -7.054,-4.98 -7.127,-3.222 Z"
       style="fill:#ceb44b;fill-opacity:1;fill-rule:evenodd;stroke:#28292b;stroke-width:1.754;stroke-linecap:butt;stroke-linejoin:miter;stroke-miterlimit:10;stroke-dasharray:none;stroke-opacity:1"
       transform="matrix(0.35277776,0,0,-0.35277776,24.018041,16.852051)"
       clip-path="url(#clipPath431)" />
    <path
       id="path432"
       d="m 0,0 12.792,-2.175 12.448,1.857 1.093,-5.76 -4.665,-9.211 -17.577,0.061 -4.784,9.599 z"
       style="fill:#ceb44b;fill-opacity:1;fill-rule:evenodd;stroke:#28292b;stroke-width:1.754;stroke-linecap:butt;stroke-linejoin:miter;stroke-miterlimit:10;stroke-dasharray:none;stroke-opacity:1"
       transform="matrix(0.35277776,0,0,-0.35277776,16.737341,17.461151)"
       clip-path="url(#clipPath433)" />
    <path
       id="path434"
       d="M 0,0 9.364,-0.085 7.537,9.545 1.701,9.577 Z"
       style="fill:#ceb44b;fill-opacity:1;fill-rule:evenodd;stroke:#28292b;stroke-width:1.754;stroke-linecap:butt;stroke-linejoin:miter;stroke-miterlimit:10;stroke-dasharray:none;stroke-opacity:1"
       transform="matrix(0.35277776,0,0,-0.35277776,17.567251,26.160721)"
       clip-path="url(#clipPath435)" />
    <path
       id="path436"
       d="m 0,0 c -0.228,-0.661 -0.429,-1.224 -0.613,-1.799 -0.051,-0.15 -0.064,-0.378 -0.034,-0.532 0.534,-3.072 1.135,-6.326 1.697,-9.378 0.041,-0.219 0.18,-0.227 0.318,-0.229 0.624,-0.058 1.262,-0.006 1.885,-0.037 0.227,-0.004 0.317,0.116 0.383,0.479 0.524,3.023 1.061,6.034 1.59,9.042 0.027,0.179 0.06,0.427 0.017,0.566 C 5.046,-1.265 4.828,-0.674 4.582,0.018 3.063,-1.902 1.503,-1.763 0,0"
       style="fill:#ceb44b;fill-opacity:1;fill-rule:evenodd;stroke:#28292b;stroke-width:1.754;stroke-linecap:butt;stroke-linejoin:miter;stroke-miterlimit:10;stroke-dasharray:none;stroke-opacity:1"
       transform="matrix(0.35277776,0,0,-0.35277776,20.454421,21.971811)"
       clip-path="url(#clipPath437)" />
    <path
       id="path438"
       d="m 0,0 c -8.897,0 -16.113,-7.215 -16.113,-16.113 v -0.012 l 0.929,-0.078 1.167,-3.858 c -0.407,-0.213 -0.77,-0.504 -1.049,-0.86 -0.439,-0.552 -0.699,-1.246 -0.699,-2.004 0,-1.775 1.439,-3.217 3.217,-3.217 1.778,0 3.216,1.442 3.216,3.22 0,0.023 -0.002,0.044 -0.002,0.067 0.343,-0.625 0.76,-1.209 1.241,-1.729 1.036,-1.115 2.356,-1.974 3.812,-2.43 0.184,-0.053 0.367,-0.11 0.552,-0.152 l 0.137,-0.034 0.101,-0.027 c 0.069,-0.025 0.145,-0.051 0.224,-0.085 0.318,-0.135 0.658,-0.299 1.007,-0.442 0.701,-0.28 1.469,-0.481 2.264,-0.478 0.795,0 1.563,0.208 2.261,0.495 0.346,0.139 0.69,0.308 1.001,0.436 0.076,0.03 0.147,0.054 0.203,0.072 0.022,0.006 0.089,0.021 0.129,0.031 l 0.139,0.035 c 0.182,0.042 0.365,0.096 0.55,0.151 0.141,0.042 0.489,0.15 0.648,0.236 1.197,0.486 2.283,1.248 3.164,2.195 0.48,0.517 0.892,1.096 1.231,1.713 v -0.052 c 0,-1.777 1.441,-3.219 3.218,-3.216 1.781,0 3.215,1.442 3.215,3.216 0,0.758 -0.262,1.452 -0.696,1.999 -0.284,0.356 -0.642,0.65 -1.052,0.863 l 1.167,3.862 0.932,0.073 v 0.013 C 16.114,-7.213 8.9,0 0.004,0 H 0"
       style="fill:#ceb44b;fill-opacity:1;fill-rule:nonzero;stroke:#28292b;stroke-width:1.754;stroke-linecap:butt;stroke-linejoin:miter;stroke-miterlimit:10;stroke-dasharray:none;stroke-opacity:1"
       transform="matrix(0.35277776,0,0,-0.35277776,21.310681,7.7694009)"
       clip-path="url(#clipPath439)" />
    <path
       id="path440"
       d="m 0,0 c 0.537,0 1.049,0.235 1.401,0.64 l 1.9,2.199 c 0.009,0.01 0.01,0.019 0.01,0.029 H 5.306 L 5.328,0.993 C 5.335,0.62 5.336,0.284 5.313,-0.063 5.286,-0.409 5.244,-0.751 5.174,-1.086 4.893,-2.44 4.243,-3.715 3.314,-4.747 2.608,-5.539 1.73,-6.178 0.772,-6.628 0.689,-6.669 0.637,-6.688 0.586,-6.708 c -0.032,0.333 -0.082,0.659 -0.14,0.99 -0.075,0.432 -0.157,0.864 -0.282,1.302 -0.029,0.108 -0.062,0.219 -0.105,0.331 -0.044,0.12 -0.092,0.226 -0.147,0.336 -0.114,0.214 -0.258,0.422 -0.441,0.605 -0.183,0.184 -0.408,0.341 -0.671,0.437 -0.131,0.052 -0.271,0.083 -0.424,0.096 h -0.038 l -0.394,0.915 c -0.185,0.43 -0.378,0.862 -0.569,1.294 -0.028,0.056 -0.09,0.089 -0.155,0.071 -0.068,-0.02 -0.108,-0.091 -0.089,-0.16 0.125,-0.453 0.51,-2.365 0.51,-2.365 l -0.699,-0.177 c -0.193,-0.041 -0.387,-0.083 -0.58,-0.127 -0.167,-0.04 -0.322,-0.062 -0.484,-0.065 -0.16,0 -0.323,0.016 -0.478,0.047 l -0.061,0.018 -0.071,0.016 -0.145,0.035 c -0.098,0.022 -0.194,0.045 -0.294,0.066 l -0.699,0.189 c 0.078,0.34 0.314,1.913 0.417,2.369 0.016,0.06 -0.015,0.125 -0.076,0.152 -0.066,0.024 -0.142,-0.008 -0.172,-0.076 -0.178,-0.43 -0.356,-0.859 -0.529,-1.292 -0.122,-0.3 -0.241,-0.604 -0.358,-0.907 -0.039,0 -0.079,-0.003 -0.12,-0.003 C -6.86,-2.624 -7,-2.655 -7.131,-2.707 -7.395,-2.803 -7.618,-2.96 -7.802,-3.144 c -0.184,-0.183 -0.328,-0.391 -0.44,-0.605 -0.056,-0.11 -0.107,-0.216 -0.148,-0.336 -0.043,-0.112 -0.076,-0.223 -0.108,-0.331 -0.121,-0.438 -0.207,-0.87 -0.281,-1.302 -0.055,-0.336 -0.109,-0.672 -0.143,-1.014 -0.255,0.107 -0.508,0.232 -0.75,0.37 -0.037,0.016 -0.072,0.036 -0.106,0.058 -0.719,0.412 -1.37,0.937 -1.921,1.554 -0.93,1.033 -1.58,2.306 -1.863,3.661 -0.063,0.338 -0.109,0.68 -0.139,1.023 -0.023,0.348 -0.02,0.683 -0.012,1.054 l 0.025,1.88 h 1.446 0.606 c 0,-0.01 0.002,-0.019 0.009,-0.029 l 1.9,-2.199 C -9.375,0.235 -8.861,0 -8.324,0 h 2.606 l -0.571,2.133 c -0.096,0.365 -0.378,0.638 -0.723,0.735 h 5.703 C -1.658,2.771 -1.939,2.498 -2.035,2.133 L -2.607,0 Z"
       style="fill:#ceb44b;fill-opacity:1;fill-rule:nonzero;stroke:#28292b;stroke-width:1.754;stroke-linecap:butt;stroke-linejoin:miter;stroke-miterlimit:10;stroke-dasharray:none;stroke-opacity:1"
       transform="matrix(0.35277776,0,0,-0.35277776,22.790691,14.577261)"
       clip-path="url(#clipPath441)" />
    <path
       id="path442"
       d="M 0,0 5.157,-1.805 H 0.422 C 0.376,-1.169 0.233,-0.561 0,0"
       style="fill:#c41d28;fill-opacity:1;fill-rule:nonzero;stroke:#28292b;stroke-width:1.169;stroke-linecap:butt;stroke-linejoin:miter;stroke-miterlimit:10;stroke-dasharray:none;stroke-opacity:1"
       transform="matrix(0.35277776,0,0,-0.35277776,23.211031,12.713471)"
       clip-path="url(#clipPath443)" />
    <path
       id="path444"
       d="M 0,0 C -0.249,-0.578 -0.405,-1.211 -0.45,-1.868 H -5.38 Z"
       style="fill:#ceb44b;fill-opacity:1;fill-rule:nonzero;stroke:#28292b;stroke-width:1.754;stroke-linecap:butt;stroke-linejoin:miter;stroke-miterlimit:10;stroke-dasharray:none;stroke-opacity:1"
       transform="matrix(0.35277776,0,0,-0.35277776,19.421241,12.691071)"
       clip-path="url(#clipPath445)" />
    <path
       id="path446"
       d="M 0,0 C -0.695,0.013 -1.384,0.388 -1.465,0.839 -1.546,1.298 -0.97,1.58 -0.261,1.484 0.376,1.396 0.897,1.032 0.962,0.66 1.028,0.295 0.631,0 0.021,0 H 0"
       style="fill:#ceb44b;fill-opacity:1;fill-rule:nonzero;stroke:#28292b;stroke-width:1.754;stroke-linecap:butt;stroke-linejoin:miter;stroke-miterlimit:10;stroke-dasharray:none;stroke-opacity:1"
       transform="matrix(0.35277776,0,0,-0.35277776,16.594711,12.864001)"
       clip-path="url(#clipPath447)" />
    <path
       id="path448"
       d="M 0,0 C -0.252,0.388 0.171,0.871 0.863,1.057 1.482,1.227 2.106,1.089 2.307,0.771 2.511,0.454 2.246,0.042 1.677,-0.208 1.43,-0.315 1.162,-0.369 0.909,-0.369 0.508,-0.369 0.153,-0.237 0,0"
       style="fill:#ceb44b;fill-opacity:1;fill-rule:nonzero;stroke:#28292b;stroke-width:1.754;stroke-linecap:butt;stroke-linejoin:miter;stroke-miterlimit:10;stroke-dasharray:none;stroke-opacity:1"
       transform="matrix(0.35277776,0,0,-0.35277776,25.743511,12.731711)"
       clip-path="url(#clipPath449)" />
    <path
       id="path450"
       d="M 0,0 4.541,-2.805 C 3.548,-3.055 2.655,-3.557 1.939,-4.241 Z"
       style="fill:#ceb44b;fill-opacity:1;fill-rule:nonzero;stroke:#28292b;stroke-width:1.754;stroke-linecap:butt;stroke-linejoin:miter;stroke-miterlimit:10;stroke-dasharray:none;stroke-opacity:1"
       transform="matrix(0.35277776,0,0,-0.35277776,19.136161,10.490691)"
       clip-path="url(#clipPath451)" />
    <path
       id="path452"
       d="M 0,0 4.979,2.852 2.653,-1.525 C 1.932,-0.797 1.02,-0.265 0,0"
       style="fill:#ceb44b;fill-opacity:1;fill-rule:nonzero;stroke:#28292b;stroke-width:1.169;stroke-linecap:butt;stroke-linejoin:miter;stroke-miterlimit:10;stroke-dasharray:none;stroke-opacity:1"
       transform="matrix(0.35277776,0,0,-0.35277776,21.829861,11.505951)"
       clip-path="url(#clipPath453)" />
    <path
       id="path454"
       d="M 0,0 2.799,5.271 C 4.935,3.358 6.369,0.679 6.663,-2.335 Z"
       style="fill:#ceb44b;fill-opacity:1;fill-rule:nonzero;stroke:#28292b;stroke-width:1.754;stroke-linecap:butt;stroke-linejoin:miter;stroke-miterlimit:10;stroke-dasharray:none;stroke-opacity:1"
       transform="matrix(0.35277776,0,0,-0.35277776,23.094751,12.258391)"
       clip-path="url(#clipPath455)" />
    <path
       id="path456"
       d="M 0,0 C -0.388,0.243 -0.214,0.86 0.34,1.319 0.831,1.733 1.448,1.873 1.772,1.675 2.088,1.469 2.034,0.971 1.609,0.518 1.259,0.145 0.763,-0.096 0.369,-0.096 0.229,-0.096 0.102,-0.066 0,0"
       style="fill:#ceb44b;fill-opacity:1;fill-rule:nonzero;stroke:#28292b;stroke-width:1.754;stroke-linecap:butt;stroke-linejoin:miter;stroke-miterlimit:10;stroke-dasharray:none;stroke-opacity:1"
       transform="matrix(0.35277776,0,0,-0.35277776,24.915291,10.835531)"
       clip-path="url(#clipPath457)" />
    <path
       id="path458"
       d="m 0,0 c -0.614,0.324 -1.056,0.976 -0.922,1.415 0.136,0.441 0.777,0.43 1.366,0.022 C 0.968,1.072 1.268,0.508 1.157,0.146 1.091,-0.063 0.895,-0.179 0.635,-0.179 0.449,-0.179 0.231,-0.122 0,0"
       style="fill:#ceb44b;fill-opacity:1;fill-rule:nonzero;stroke:#28292b;stroke-width:1.754;stroke-linecap:butt;stroke-linejoin:miter;stroke-miterlimit:10;stroke-dasharray:none;stroke-opacity:1"
       transform="matrix(0.35277776,0,0,-0.35277776,17.358831,10.804551)"
       clip-path="url(#clipPath459)" />
    <path
       id="path460"
       d="M 0,0 C 2.172,-0.114 4.19,-0.818 5.895,-1.953 L -0.063,-5.366 Z"
       style="fill:#ceb44b;fill-opacity:1;fill-rule:nonzero;stroke:#28292b;stroke-width:1.754;stroke-linecap:butt;stroke-linejoin:miter;stroke-miterlimit:10;stroke-dasharray:none;stroke-opacity:1"
       transform="matrix(0.35277776,0,0,-0.35277776,21.533071,9.3455309)"
       clip-path="url(#clipPath461)" />
    <path
       id="path462"
       d="M 0,0 C 1.691,1.069 3.673,1.719 5.799,1.799 L 5.732,-3.549 Z"
       style="fill:#ceb44b;fill-opacity:1;fill-rule:nonzero;stroke:#28292b;stroke-width:1.754;stroke-linecap:butt;stroke-linejoin:miter;stroke-miterlimit:10;stroke-dasharray:none;stroke-opacity:1"
       transform="matrix(0.35277776,0,0,-0.35277776,19.097211,9.9784209)"
       clip-path="url(#clipPath463)" />
    <path
       id="path464"
       d="M 0,0 C -0.321,0.557 -0.351,1.191 -0.098,1.469 0.157,1.748 0.638,1.611 1.011,1.11 1.43,0.557 1.554,-0.221 1.244,-0.562 1.155,-0.659 1.039,-0.709 0.917,-0.709 0.616,-0.709 0.255,-0.438 0,0"
       style="fill:#ceb44b;fill-opacity:1;fill-rule:nonzero;stroke:#28292b;stroke-width:1.754;stroke-linecap:butt;stroke-linejoin:miter;stroke-miterlimit:10;stroke-dasharray:none;stroke-opacity:1"
       transform="matrix(0.35277776,0,0,-0.35277776,18.935641,9.2597709)"
       clip-path="url(#clipPath465)" />
    <path
       id="path466"
       d="M 0,0 C -0.456,0.033 -0.591,0.662 -0.323,1.326 -0.084,1.922 0.392,2.336 0.77,2.312 1.146,2.282 1.335,1.818 1.174,1.216 1,0.563 0.489,-0.003 0.037,-0.003 0.026,-0.003 0.012,0 0,0"
       style="fill:#ceb44b;fill-opacity:1;fill-rule:nonzero;stroke:#28292b;stroke-width:1.754;stroke-linecap:butt;stroke-linejoin:miter;stroke-miterlimit:10;stroke-dasharray:none;stroke-opacity:1"
       transform="matrix(0.35277776,0,0,-0.35277776,23.380501,9.4861209)"
       clip-path="url(#clipPath467)" />
    <path
       id="path468"
       d="M 0,0 C -0.04,0.638 0.218,1.222 0.571,1.356 0.922,1.491 1.29,1.153 1.403,0.54 1.525,-0.145 1.29,-0.896 0.858,-1.062 0.803,-1.083 0.748,-1.091 0.694,-1.091 0.334,-1.093 0.035,-0.622 0,0"
       style="fill:#ceb44b;fill-opacity:1;fill-rule:nonzero;stroke:#28292b;stroke-width:1.754;stroke-linecap:butt;stroke-linejoin:miter;stroke-miterlimit:10;stroke-dasharray:none;stroke-opacity:1"
       transform="matrix(0.35277776,0,0,-0.35277776,21.070231,8.6344809)"
       clip-path="url(#clipPath469)" />
    <path
       id="path470"
       d="M 0,0 C 0.119,0.002 0.238,0.014 0.353,0.031 0.471,0.049 0.59,0.08 0.696,0.112 0.887,0.174 1.079,0.235 1.262,0.301 L 2.396,0.698 2.445,0.716 H 2.454 C 2.518,0.718 2.595,0.708 2.67,0.688 2.818,0.646 2.969,0.568 3.102,0.453 3.239,0.338 3.356,0.198 3.459,0.036 3.514,-0.042 3.563,-0.128 3.6,-0.214 3.638,-0.3 3.678,-0.396 3.715,-0.49 3.859,-0.884 3.977,-1.298 4.087,-1.712 4.17,-2.058 4.255,-2.408 4.316,-2.754 4.2,-2.798 4.083,-2.84 3.967,-2.879 3.8,-2.93 3.634,-2.979 3.465,-3.021 L 3.196,-3.087 C 3.079,-3.116 2.983,-3.155 2.894,-3.193 2.527,-3.345 2.218,-3.502 1.888,-3.637 1.246,-3.903 0.583,-4.08 -0.086,-4.082 c -0.669,0 -1.336,0.168 -1.979,0.436 -0.329,0.129 -0.642,0.287 -0.996,0.436 -0.088,0.037 -0.183,0.075 -0.286,0.111 l -0.164,0.046 -0.124,0.032 c -0.169,0.037 -0.334,0.091 -0.501,0.137 -0.064,0.025 -0.13,0.049 -0.19,0.069 -0.014,0.004 -0.068,0.022 -0.11,0.04 0.059,0.352 0.143,0.711 0.233,1.063 0.109,0.414 0.227,0.828 0.369,1.222 0.039,0.094 0.076,0.19 0.117,0.276 0.037,0.086 0.09,0.172 0.139,0.25 0.104,0.162 0.223,0.302 0.356,0.417 0.133,0.115 0.285,0.193 0.434,0.235 0.077,0.02 0.152,0.03 0.216,0.028 0.027,0 0.061,0 0.095,-0.003 l 0.063,-0.022 1.128,-0.407 c 0.092,-0.034 0.187,-0.066 0.281,-0.1 L -0.863,0.14 -0.792,0.114 -0.708,0.091 C -0.49,0.029 -0.263,0 -0.04,0 H 0"
       style="fill:#ceb44b;fill-opacity:1;fill-rule:nonzero;stroke:#28292b;stroke-width:1.754;stroke-linecap:butt;stroke-linejoin:miter;stroke-miterlimit:10;stroke-dasharray:none;stroke-opacity:1"
       transform="matrix(0.35277776,0,0,-0.35277776,21.341871,16.025911)"
       clip-path="url(#clipPath471)" />
    <path
       id="path472"
       d="m 0,0 c 0,0.727 0.321,1.381 0.827,1.827 0.427,0.378 0.991,0.606 1.605,0.606 0.616,0 1.177,-0.228 1.604,-0.606 0.505,-0.446 0.826,-1.1 0.826,-1.824 0,-1.344 -1.087,-2.43 -2.43,-2.43 C 1.091,-2.427 0.002,-1.341 0,0"
       style="fill:#ceb44b;fill-opacity:1;fill-rule:nonzero;stroke:#28292b;stroke-width:1.754;stroke-linecap:butt;stroke-linejoin:miter;stroke-miterlimit:10;stroke-dasharray:none;stroke-opacity:1"
       transform="matrix(0.35277776,0,0,-0.35277776,16.025931,15.856761)"
       clip-path="url(#clipPath473)" />
    <path
       id="path474"
       d="M 0,0 C 0,0.727 0.318,1.379 0.827,1.827 1.25,2.202 1.814,2.428 2.43,2.428 3.041,2.428 3.604,2.202 4.033,1.827 4.538,1.379 4.86,0.729 4.86,0 4.86,-1.343 3.771,-2.43 2.43,-2.43 1.088,-2.43 0,-1.343 0,0"
       style="fill:#ceb44b;fill-opacity:1;fill-rule:nonzero;stroke:#28292b;stroke-width:1.754;stroke-linecap:butt;stroke-linejoin:miter;stroke-miterlimit:10;stroke-dasharray:none;stroke-opacity:1"
       transform="matrix(0.35277776,0,0,-0.35277776,24.880331,15.855061)"
       clip-path="url(#clipPath475)" />
    <path
       id="path476"
       d="m 0,0 -1.143,1.326 c -0.033,0.04 -0.004,0.099 0.042,0.099 h 2.284 c 0.383,0 0.725,-0.26 0.822,-0.633 l 0.29,-1.086 H 0.647 C 0.398,-0.294 0.164,-0.187 0,0"
       style="fill:#ceb44b;fill-opacity:1;fill-rule:nonzero;stroke:#28292b;stroke-width:1.754;stroke-linecap:butt;stroke-linejoin:miter;stroke-miterlimit:10;stroke-dasharray:none;stroke-opacity:1"
       transform="matrix(0.35277776,0,0,-0.35277776,19.641371,14.263401)"
       clip-path="url(#clipPath477)" />
    <path
       id="path478"
       d="m 0,0 c 0.097,0.373 0.436,0.633 0.822,0.633 h 2.282 c 0.049,0 0.076,-0.059 0.044,-0.099 L 2,-0.792 C 1.838,-0.979 1.605,-1.086 1.356,-1.086 h -1.647 z"
       style="fill:#ceb44b;fill-opacity:1;fill-rule:nonzero;stroke:#28292b;stroke-width:1.754;stroke-linecap:butt;stroke-linejoin:miter;stroke-miterlimit:10;stroke-dasharray:none;stroke-opacity:1"
       transform="matrix(0.35277776,0,0,-0.35277776,22.296841,13.984031)"
       clip-path="url(#clipPath479)" />
    <path
       id="path480"
       d="m 0,0 v -3.908 c -1.483,0.128 -2.922,0.25 -4.418,0.38 0,1.012 0,2.007 0.015,3.001 0.007,0.063 0.193,0.172 0.333,0.181 C -2.745,-0.221 -1.407,-0.118 0,0"
       style="fill:#ceb44b;fill-opacity:1;fill-rule:evenodd;stroke:#28292b;stroke-width:1.754;stroke-linecap:butt;stroke-linejoin:miter;stroke-miterlimit:10;stroke-dasharray:none;stroke-opacity:1"
       transform="matrix(0.35277776,0,0,-0.35277776,19.610191,19.574051)"
       clip-path="url(#clipPath481)" />
    <path
       id="path482"
       d="M 0,0 C 0.571,-0.275 0.885,-0.837 0.792,-1.408 0.581,-2.671 0.379,-3.896 0.16,-5.12 0.135,-5.24 0.111,-5.359 0.086,-5.479 c -0.103,-0.445 0.441,-0.786 0.875,-0.543 0.343,0.189 0.7,0.365 1.084,0.498 0.745,0.257 1.518,0.084 2.321,-0.071 0.366,-0.071 0.603,-0.384 0.54,-0.709 C 4.752,-7.113 4.605,-7.905 4.422,-8.692 4.34,-9.032 4.038,-9.263 3.459,-9.244 c -1.687,0.05 -3.377,0.047 -5.063,0.118 -1.029,0.041 -1.723,0.711 -1.791,1.535 -0.148,1.854 -0.3,3.707 -0.498,5.56 -0.077,0.714 -0.28,1.421 -0.437,2.127 -0.078,0.355 0.096,0.513 0.491,0.784 0.104,0.071 0.426,0.209 0.527,0.252 C -2.018,1.5 -1.189,0.554 -0.252,0.12 -0.169,0.08 -0.083,0.039 0,0"
       style="fill:#ceb44b;fill-opacity:1;fill-rule:evenodd;stroke:#28292b;stroke-width:1.754;stroke-linecap:butt;stroke-linejoin:miter;stroke-miterlimit:10;stroke-dasharray:none;stroke-opacity:1"
       transform="matrix(0.35277776,0,0,-0.35277776,17.083731,17.643401)"
       clip-path="url(#clipPath483)" />
    <path
       id="path484"
       d="m 0,0 v -3.908 c 1.484,0.127 2.924,0.25 4.42,0.379 0,1.012 0,2.007 -0.015,3.004 -0.008,0.061 -0.194,0.17 -0.334,0.179 C 2.748,-0.221 1.411,-0.116 0,0"
       style="fill:#ceb44b;fill-opacity:1;fill-rule:evenodd;stroke:#28292b;stroke-width:1.754;stroke-linecap:butt;stroke-linejoin:miter;stroke-miterlimit:10;stroke-dasharray:none;stroke-opacity:1"
       transform="matrix(0.35277776,0,0,-0.35277776,22.987431,19.589531)"
       clip-path="url(#clipPath485)" />
    <path
       id="path486"
       d="m 0,0 c -0.572,-0.274 -0.888,-0.836 -0.792,-1.404 0.21,-1.266 0.412,-2.492 0.632,-3.713 0.022,-0.122 0.047,-0.242 0.074,-0.362 0.103,-0.444 -0.442,-0.786 -0.879,-0.542 -0.34,0.189 -0.697,0.368 -1.082,0.5 -0.744,0.254 -1.518,0.084 -2.32,-0.074 -0.366,-0.068 -0.601,-0.383 -0.54,-0.706 0.152,-0.811 0.3,-1.603 0.484,-2.39 0.08,-0.338 0.384,-0.572 0.963,-0.552 1.687,0.049 3.377,0.047 5.063,0.118 1.029,0.044 1.724,0.711 1.79,1.537 0.149,1.854 0.301,3.707 0.5,5.558 0.076,0.714 0.279,1.418 0.437,2.127 C 4.405,0.451 4.233,0.611 3.839,0.883 3.734,0.952 3.412,1.089 3.312,1.134 2.015,1.504 1.188,0.555 0.252,0.12 0.167,0.079 0.083,0.042 0,0"
       style="fill:#ceb44b;fill-opacity:1;fill-rule:evenodd;stroke:#28292b;stroke-width:1.754;stroke-linecap:butt;stroke-linejoin:miter;stroke-miterlimit:10;stroke-dasharray:none;stroke-opacity:1"
       transform="matrix(0.35277776,0,0,-0.35277776,25.514561,17.659241)"
       clip-path="url(#clipPath487)" />
    <path
       id="path488"
       d="m 0,0 c 0,-4.17 -2.37,-7.554 -5.292,-7.554 -2.923,0 -5.292,3.384 -5.292,7.554 0,4.173 2.369,7.554 5.292,7.554 C -2.37,7.554 0,4.173 0,0"
       style="fill:#ceb44b;fill-opacity:1;fill-rule:evenodd;stroke:#28292b;stroke-width:1.754;stroke-linecap:butt;stroke-linejoin:miter;stroke-miterlimit:10;stroke-dasharray:none;stroke-opacity:1"
       transform="matrix(0.35277776,0,0,-0.35277776,23.112321,20.369841)"
       clip-path="url(#clipPath489)" />
    <path
       id="path490"
       d="M 0,0 C 0,0 4.613,-5.039 -0.358,-15.14"
       style="fill:none;stroke:#28292b;stroke-width:1.754;stroke-linecap:butt;stroke-linejoin:miter;stroke-miterlimit:10;stroke-dasharray:none;stroke-opacity:1"
       transform="matrix(0.35277776,0,0,-0.35277776,21.371681,17.693701)"
       clip-path="url(#clipPath491)" />
    <path
       id="path492"
       d="m 0,0 -5.32,-3.056 c 1.132,-0.269 2.055,-0.678 2.875,-1.438 z"
       style="fill:#ceb44b;fill-opacity:1;fill-rule:nonzero;stroke:#28292b;stroke-width:1.754;stroke-linecap:butt;stroke-linejoin:miter;stroke-miterlimit:10;stroke-dasharray:none;stroke-opacity:1"
       transform="matrix(0.35277776,0,0,-0.35277776,23.629601,10.450721)"
       clip-path="url(#clipPath493)" />
    <path
       id="path494"
       d="M 0,0 -2.624,5.401 C -4.759,3.486 -6.445,0.691 -6.739,-2.325 Z"
       style="fill:#ceb44b;fill-opacity:1;fill-rule:nonzero;stroke:#28292b;stroke-width:1.754;stroke-linecap:butt;stroke-linejoin:miter;stroke-miterlimit:10;stroke-dasharray:none;stroke-opacity:1"
       transform="matrix(0.35277776,0,0,-0.35277776,19.557481,12.236651)"
       clip-path="url(#clipPath495)" />
    <path
       id="path496"
       d="M 0,0 C 0.25,-0.581 0.404,-1.212 0.448,-1.871 H 5.38 Z"
       style="fill:#ceb44b;fill-opacity:1;fill-rule:nonzero;stroke:#28292b;stroke-width:1.754;stroke-linecap:butt;stroke-linejoin:miter;stroke-miterlimit:10;stroke-dasharray:none;stroke-opacity:1"
       transform="matrix(0.35277776,0,0,-0.35277776,23.192931,12.706241)"
       clip-path="url(#clipPath497)" />
    <path
       id="path498"
       d="M 0,0 0.076,0.259"
       style="fill:#28292b;fill-opacity:1;fill-rule:evenodd;stroke:none"
       transform="matrix(0.35277776,0,0,-0.35277776,25.884901,23.463531)"
       clip-path="url(#clipPath499)" />
    <path
       id="path500"
       d="M 0,0 9.367,-0.085 7.537,9.543 1.705,9.575 Z"
       style="fill:#ceb44b;fill-opacity:1;fill-rule:evenodd;stroke:#28292b;stroke-width:1.754;stroke-linecap:butt;stroke-linejoin:miter;stroke-miterlimit:10;stroke-dasharray:none;stroke-opacity:1"
       transform="matrix(0.35277776,0,0,-0.35277776,21.690521,26.182421)"
       clip-path="url(#clipPath501)" />
    <path
       id="path502"
       d="m 0,0 v -7.851 h 1.875 v 3.048 h 3.036 v 1.564 H 1.872 v 1.621 H 5.167 V 0 Z"
       style="fill:#bc1c2c;fill-opacity:1;fill-rule:nonzero;stroke:none"
       transform="matrix(0.35277776,0,0,-0.35277776,17.698341,36.883231)"
       clip-path="url(#clipPath503)" />
    <path
       id="path504"
       d="M 0,0 7.083,-2.564 3.969,-11.16 -3.114,-8.593 Z"
       style="fill:#bc1c2c;fill-opacity:1;fill-rule:nonzero;stroke:none"
       transform="matrix(0.35277776,0,0,-0.35277776,17.910051,36.299631)"
       clip-path="url(#clipPath505)" />
    <path
       id="path506"
       d="m 0,0 v -7.846 h 1.896 v 2.957 h 0.943 c 0.407,0 0.799,0.047 1.177,0.135 0.377,0.089 0.709,0.231 0.995,0.422 0.29,0.188 0.52,0.443 0.689,0.758 0.169,0.313 0.255,0.701 0.255,1.16 0,0.45 -0.078,0.83 -0.24,1.137 -0.156,0.306 -0.374,0.554 -0.654,0.743 -0.276,0.186 -0.601,0.326 -0.978,0.409 -0.37,0.084 -0.771,0.131 -1.2,0.131 z m 1.896,-1.526 h 0.833 c 0.169,0 0.335,-0.011 0.489,-0.033 0.163,-0.025 0.304,-0.066 0.43,-0.135 0.128,-0.066 0.226,-0.159 0.3,-0.277 0.075,-0.12 0.11,-0.272 0.11,-0.457 0,-0.182 -0.035,-0.335 -0.11,-0.457 C 3.874,-3.008 3.771,-3.108 3.644,-3.18 3.515,-3.253 3.37,-3.307 3.205,-3.334 3.043,-3.363 2.871,-3.378 2.695,-3.378 H 1.896 Z"
       style="fill:#bc1c2c;fill-opacity:1;fill-rule:nonzero;stroke:none"
       transform="matrix(0.35277776,0,0,-0.35277776,20.499361,36.885981)"
       clip-path="url(#clipPath507)" />
    <path
       id="path508"
       d="m 0,0 7.782,-2.819 -3.209,-8.849 -7.78,2.819 z"
       style="fill:#bc1c2c;fill-opacity:1;fill-rule:nonzero;stroke:none"
       transform="matrix(0.35277776,0,0,-0.35277776,20.743271,36.211081)"
       clip-path="url(#clipPath509)" />
    <path
       id="path510"
       d="M 0,0 V -7.851 H 1.852 L 1.849,-4.734 H 2.496 L 4.204,-7.851 H 6.419 L 4.367,-4.489 C 4.875,-4.332 5.28,-4.077 5.563,-3.712 5.853,-3.354 6,-2.905 6,-2.373 6,-1.92 5.914,-1.543 5.742,-1.241 5.573,-0.937 5.344,-0.694 5.061,-0.508 4.777,-0.324 4.456,-0.194 4.095,-0.115 3.734,-0.037 3.366,0 2.991,0 Z m 1.836,-1.527 h 1.016 c 0.139,0 0.287,-0.016 0.44,-0.035 0.153,-0.021 0.291,-0.063 0.412,-0.129 0.124,-0.062 0.222,-0.148 0.303,-0.263 0.078,-0.115 0.116,-0.268 0.116,-0.451 0,-0.201 -0.042,-0.361 -0.128,-0.488 C 3.908,-3.021 3.801,-3.116 3.667,-3.18 3.531,-3.249 3.384,-3.295 3.218,-3.317 3.058,-3.344 2.896,-3.361 2.742,-3.361 H 1.836 Z"
       style="fill:#bc1c2c;fill-opacity:1;fill-rule:nonzero;stroke:none"
       transform="matrix(0.35277776,0,0,-0.35277776,23.395141,36.883231)"
       clip-path="url(#clipPath511)" />
    <path
       id="path512"
       d="m 0,0 8.19,-2.967 -3.26,-8.995 -8.191,2.967 z"
       style="fill:#bc1c2c;fill-opacity:1;fill-rule:nonzero;stroke:none"
       transform="matrix(0.35277776,0,0,-0.35277776,23.657851,36.157671)"
       clip-path="url(#clipPath513)" />
  </g>
</svg>
